<?xml version="1.0" encoding="UTF-8" standalone="no"?>
<!-- Created with Inkscape (http://www.inkscape.org/) -->

<svg
   width="98.576065mm"
   height="41.480324mm"
   viewBox="0 0 98.576064 41.480323"
   version="1.1"
   id="svg5"
   inkscape:version="1.1 (c68e22c387, 2021-05-23)"
   sodipodi:docname="labelled-graph-example.svg"
   xmlns:inkscape="http://www.inkscape.org/namespaces/inkscape"
   xmlns:sodipodi="http://sodipodi.sourceforge.net/DTD/sodipodi-0.dtd"
   xmlns="http://www.w3.org/2000/svg"
   xmlns:svg="http://www.w3.org/2000/svg">
  <sodipodi:namedview
     id="namedview7"
     pagecolor="#ffffff"
     bordercolor="#666666"
     borderopacity="1.0"
     inkscape:pageshadow="2"
     inkscape:pageopacity="0.0"
     inkscape:pagecheckerboard="0"
     inkscape:document-units="mm"
     showgrid="false"
     inkscape:object-paths="true"
     inkscape:snap-intersection-paths="true"
     inkscape:snap-smooth-nodes="true"
     inkscape:zoom="0.70710678"
     inkscape:cx="36.062446"
     inkscape:cy="-96.166522"
     inkscape:window-width="1806"
     inkscape:window-height="1172"
     inkscape:window-x="106"
     inkscape:window-y="-8"
     inkscape:window-maximized="1"
     inkscape:current-layer="layer1"
     fit-margin-top="5"
     fit-margin-left="5"
     fit-margin-right="5"
     fit-margin-bottom="5"
     inkscape:snap-bbox="true"
     inkscape:bbox-nodes="true"
     inkscape:snap-bbox-edge-midpoints="true"
     inkscape:snap-bbox-midpoints="true"
     inkscape:bbox-paths="true"
     inkscape:snap-object-midpoints="true"
     inkscape:snap-center="true" />
  <defs
     id="defs2">
    <marker
       style="overflow:visible"
       id="Arrow1Lend"
       refX="0"
       refY="0"
       orient="auto"
       inkscape:stockid="Arrow1Lend"
       inkscape:isstock="true">
      <path
         transform="matrix(-0.8,0,0,-0.8,-10,0)"
         style="fill:context-stroke;fill-rule:evenodd;stroke:context-stroke;stroke-width:1pt"
         d="M 0,0 5,-5 -12.5,0 5,5 Z"
         id="path22184" />
    </marker>
  </defs>
  <g
     inkscape:label="Layer 1"
     inkscape:groupmode="layer"
     id="layer1"
     transform="translate(-174.99445,-212.36967)">
    <g
       aria-label="b"
       id="g21755"
       style="font-size:14.1111px;line-height:1.25;-inkscape-font-specification:'sans-serif, Normal';stroke-width:0.264583"
       transform="translate(-5.0798972,95.710402)">
      <path
         d="m 232.81264,149.01926 q 0,0.96463 -0.2756,1.73633 -0.26872,0.7717 -0.73036,1.29535 -0.48921,0.54433 -1.07487,0.81993 -0.58567,0.26872 -1.28847,0.26872 -0.65456,0 -1.14377,-0.15847 -0.4892,-0.15159 -0.96462,-0.41341 l -0.0827,0.35828 h -1.21267 v -10.72112 h 1.29536 v 3.83094 q 0.54432,-0.44786 1.15755,-0.73036 0.61322,-0.28939 1.37804,-0.28939 1.36425,0 2.14973,1.04731 0.79237,1.04731 0.79237,2.95589 z m -1.33669,0.0344 q 0,-1.37804 -0.45475,-2.08773 -0.45476,-0.71658 -1.46761,-0.71658 -0.565,0 -1.14377,0.24805 -0.57878,0.24116 -1.07487,0.62701 v 4.40972 q 0.55121,0.24804 0.94395,0.34451 0.39963,0.0965 0.90262,0.0965 1.07487,0 1.6812,-0.7028 0.61323,-0.70969 0.61323,-2.21864 z"
         id="path21753" />
    </g>
    <g
       aria-label="a"
       id="g21759"
       style="font-size:14.1111px;line-height:1.25;-inkscape-font-specification:'sans-serif, Normal';stroke-width:0.264583"
       transform="translate(78.263853,95.710402)">
      <path
         d="m 108.26939,152.92599 h -1.28847 v -0.81993 q -0.17225,0.11714 -0.46853,0.33073 -0.28939,0.20671 -0.56499,0.33073 -0.32384,0.15847 -0.74414,0.26183 -0.42031,0.11024 -0.9853,0.11024 -1.04042,0 -1.76389,-0.68902 -0.72347,-0.68902 -0.72347,-1.757 0,-0.87505 0.37207,-1.41248 0.37896,-0.54433 1.07487,-0.85439 0.7028,-0.31005 1.6881,-0.4203 0.98529,-0.11024 2.11528,-0.16536 v -0.19982 q 0,-0.44097 -0.15847,-0.73036 -0.15158,-0.28938 -0.44097,-0.45475 -0.27561,-0.15847 -0.66146,-0.2136 -0.38585,-0.0551 -0.80615,-0.0551 -0.50988,0 -1.13688,0.13781 -0.62701,0.13091 -1.29536,0.38585 h -0.0689 v -1.31603 q 0.37896,-0.10335 1.09554,-0.22737 0.71658,-0.12403 1.41249,-0.12403 0.81304,0 1.41249,0.13781 0.60633,0.13091 1.0473,0.45475 0.43409,0.31695 0.66146,0.81993 0.22738,0.50298 0.22738,1.24712 z m -1.28847,-1.8948 v -2.14284 q -0.59255,0.0344 -1.3987,0.10335 -0.79927,0.0689 -1.2678,0.19981 -0.5581,0.15848 -0.90261,0.4961 -0.34451,0.33073 -0.34451,0.91639 0,0.66146 0.39963,0.99908 0.39963,0.33073 1.21956,0.33073 0.68213,0 1.24713,-0.26183 0.56499,-0.26872 1.0473,-0.64079 z"
         id="path21757" />
    </g>
    <g
       id="g5170">
      <g
         id="g1636">
        <circle
           style="fill:#000000;fill-opacity:1;stroke:none;stroke-width:0.499999;stroke-miterlimit:4;stroke-dasharray:none;stroke-opacity:1"
           id="circle21745"
           cx="183.26385"
           cy="232.95889"
           r="3.1419272" />
        <path
           style="fill:none;stroke:#000000;stroke-width:0.5;stroke-linecap:butt;stroke-linejoin:miter;stroke-miterlimit:4;stroke-dasharray:none;stroke-opacity:1;marker-end:url(#Arrow1Lend)"
           d="m 183.26386,232.95889 h 37.28562"
           id="path21806"
           sodipodi:nodetypes="cc" />
      </g>
      <circle
         style="fill:#000000;fill-opacity:1;stroke:none;stroke-width:0.499999;stroke-miterlimit:4;stroke-dasharray:none;stroke-opacity:1"
         id="circle1243"
         cx="224.34622"
         cy="232.95889"
         r="3.1419272" />
    </g>
    <circle
       style="fill:#000000;fill-opacity:1;stroke:none;stroke-width:0.499999;stroke-miterlimit:4;stroke-dasharray:none;stroke-opacity:1"
       id="circle1245"
       cx="265.42859"
       cy="232.95889"
       r="3.1419272" />
    <path
       style="fill:none;stroke:#000000;stroke-width:0.5;stroke-linecap:butt;stroke-linejoin:miter;stroke-miterlimit:4;stroke-dasharray:none;stroke-opacity:1;marker-end:url(#Arrow1Lend)"
       d="m 224.34622,232.95889 h 37.28562"
       id="path1247"
       sodipodi:nodetypes="cc" />
    <g
       aria-label="c"
       id="text2468"
       style="font-size:14.1111px;line-height:1.25;-inkscape-font-specification:'sans-serif, Normal';stroke-width:0.264583">
      <path
         d="m 268.54984,248.19542 q -0.64768,0.31006 -1.23334,0.48231 -0.57878,0.17226 -1.23335,0.17226 -0.83371,0 -1.52962,-0.24116 -0.69591,-0.24804 -1.192,-0.74414 -0.50298,-0.49609 -0.77859,-1.25401 -0.27561,-0.75792 -0.27561,-1.77078 0,-1.88791 1.03353,-2.96278 1.04042,-1.07487 2.74229,-1.07487 0.66146,0 1.29536,0.18604 0.64079,0.18603 1.17133,0.45475 v 1.44005 h -0.0689 q -0.59256,-0.46164 -1.22645,-0.70969 -0.62701,-0.24805 -1.22646,-0.24805 -1.10243,0 -1.74321,0.74414 -0.6339,0.73725 -0.6339,2.17041 0,1.39182 0.62011,2.14285 0.62701,0.74414 1.757,0.74414 0.39274,0 0.79926,-0.10335 0.40652,-0.10336 0.73036,-0.26872 0.2825,-0.1447 0.53055,-0.30317 0.24804,-0.16536 0.39274,-0.2825 h 0.0689 z"
         id="path5027" />
    </g>
    <g
       id="g5151"
       transform="matrix(0.7,0,0,0.7,54.606634,88.542087)">
      <g
         id="g5022">
        <circle
           style="fill:#e3f2d9;fill-opacity:1;stroke:#000000;stroke-width:0.642774;stroke-miterlimit:4;stroke-dasharray:none;stroke-opacity:1"
           id="circle17884"
           cx="210.20061"
           cy="193.3609"
           r="9.0001135" />
        <g
           aria-label="1"
           id="text21169"
           style="font-size:14.1111px;line-height:1.25;-inkscape-font-specification:'sans-serif, Normal';stroke-width:0.264583"
           transform="translate(-263.77077,105.79933)">
          <path
             d="m 476.8804,92.576241 h -5.55349 v -1.047309 h 2.13596 v -6.876405 h -2.13596 v -0.937065 q 0.43408,0 0.93017,-0.0689 0.4961,-0.07579 0.75103,-0.213596 0.31695,-0.172254 0.4961,-0.434082 0.18603,-0.268717 0.21359,-0.716579 h 1.06798 v 9.246629 h 2.09462 z"
             id="path21180" />
        </g>
      </g>
    </g>
    <g
       id="g5156"
       transform="matrix(0.7,0,0,0.7,73.032568,88.542087)">
      <circle
         style="fill:#e3f2d9;fill-opacity:1;stroke:#000000;stroke-width:0.642774;stroke-miterlimit:4;stroke-dasharray:none;stroke-opacity:1"
         id="circle4508"
         cx="242.56694"
         cy="193.3609"
         r="9.0001135" />
      <g
         aria-label="2"
         id="text4407"
         style="font-size:14.1111px;line-height:1.25;-inkscape-font-specification:'sans-serif, Normal';stroke-width:0.264583">
        <path
           d="m 246.34763,198.37556 h -6.94531 v -1.44004 q 0.72347,-0.62012 1.44694,-1.24024 0.73036,-0.62011 1.35736,-1.23334 1.32292,-1.28158 1.81212,-2.03261 0.48921,-0.75792 0.48921,-1.63297 0,-0.79926 -0.53055,-1.24712 -0.52365,-0.45476 -1.46761,-0.45476 -0.627,0 -1.35736,0.22049 -0.73036,0.22049 -1.42627,0.67524 h -0.0689 v -1.44694 q 0.4892,-0.24116 1.30224,-0.44097 0.81993,-0.19982 1.58474,-0.19982 1.57786,0 2.47358,0.76481 0.89572,0.75792 0.89572,2.06017 0,0.58566 -0.15158,1.09554 -0.14469,0.50298 -0.43408,0.95773 -0.26872,0.4272 -0.6339,0.84061 -0.35829,0.41341 -0.87505,0.91639 -0.73725,0.72347 -1.52273,1.4056 -0.78548,0.67524 -1.46761,1.25401 h 5.51904 z"
           id="path5024" />
      </g>
    </g>
  </g>
</svg>
