<?xml version="1.0" encoding="UTF-8" standalone="no"?>
<!-- Created with Inkscape (http://www.inkscape.org/) -->

<svg
   width="507.65582mm"
   height="171.08493mm"
   viewBox="0 0 507.65582 171.08493"
   version="1.1"
   id="svg5"
   inkscape:version="1.1 (c68e22c387, 2021-05-23)"
   sodipodi:docname="simplicial-set-examples.svg"
   xmlns:inkscape="http://www.inkscape.org/namespaces/inkscape"
   xmlns:sodipodi="http://sodipodi.sourceforge.net/DTD/sodipodi-0.dtd"
   xmlns="http://www.w3.org/2000/svg"
   xmlns:svg="http://www.w3.org/2000/svg">
  <sodipodi:namedview
     id="namedview7"
     pagecolor="#ffffff"
     bordercolor="#666666"
     borderopacity="1.0"
     inkscape:pageshadow="2"
     inkscape:pageopacity="0.0"
     inkscape:pagecheckerboard="0"
     inkscape:document-units="mm"
     showgrid="false"
     inkscape:object-paths="true"
     inkscape:snap-intersection-paths="true"
     inkscape:snap-smooth-nodes="true"
     inkscape:zoom="0.5"
     inkscape:cx="989"
     inkscape:cy="524"
     inkscape:window-width="1806"
     inkscape:window-height="1172"
     inkscape:window-x="106"
     inkscape:window-y="-8"
     inkscape:window-maximized="1"
     inkscape:current-layer="layer1"
     fit-margin-top="5"
     fit-margin-left="5"
     fit-margin-right="5"
     fit-margin-bottom="5"
     inkscape:snap-bbox="true"
     inkscape:bbox-nodes="true"
     inkscape:snap-bbox-edge-midpoints="true"
     inkscape:snap-bbox-midpoints="true"
     inkscape:bbox-paths="true"
     inkscape:snap-object-midpoints="true"
     inkscape:snap-center="true" />
  <defs
     id="defs2">
    <marker
       style="overflow:visible"
       id="Arrow1Lend"
       refX="0"
       refY="0"
       orient="auto"
       inkscape:stockid="Arrow1Lend"
       inkscape:isstock="true">
      <path
         transform="matrix(-0.8,0,0,-0.8,-10,0)"
         style="fill:context-stroke;fill-rule:evenodd;stroke:context-stroke;stroke-width:1pt"
         d="M 0,0 5,-5 -12.5,0 5,5 Z"
         id="path22184" />
    </marker>
  </defs>
  <g
     inkscape:label="Layer 1"
     inkscape:groupmode="layer"
     id="layer1"
     transform="translate(-41.925602,-78.531736)">
    <rect
       style="fill:#d9ebf2;fill-opacity:1;stroke:#000000;stroke-width:0.5;stroke-miterlimit:4;stroke-dasharray:none;stroke-opacity:1"
       id="rect846"
       width="18.143425"
       height="18.143425"
       x="108.09914"
       y="144.71988"
       rx="3.1553786"
       ry="3.1553786" />
    <g
       aria-label="a"
       id="text2439"
       style="font-size:14.1111px;line-height:1.25;-inkscape-font-specification:'sans-serif, Normal';stroke-width:0.264583"
       transform="translate(12.170835,5.2916669)">
      <path
         d="m 108.26939,152.92599 h -1.28847 v -0.81993 q -0.17225,0.11714 -0.46853,0.33073 -0.28939,0.20671 -0.56499,0.33073 -0.32384,0.15847 -0.74414,0.26183 -0.42031,0.11024 -0.9853,0.11024 -1.04042,0 -1.76389,-0.68902 -0.72347,-0.68902 -0.72347,-1.757 0,-0.87505 0.37207,-1.41248 0.37896,-0.54433 1.07487,-0.85439 0.7028,-0.31005 1.6881,-0.4203 0.98529,-0.11024 2.11528,-0.16536 v -0.19982 q 0,-0.44097 -0.15847,-0.73036 -0.15158,-0.28938 -0.44097,-0.45475 -0.27561,-0.15847 -0.66146,-0.2136 -0.38585,-0.0551 -0.80615,-0.0551 -0.50988,0 -1.13688,0.13781 -0.62701,0.13091 -1.29536,0.38585 h -0.0689 v -1.31603 q 0.37896,-0.10335 1.09554,-0.22737 0.71658,-0.12403 1.41249,-0.12403 0.81304,0 1.41249,0.13781 0.60633,0.13091 1.0473,0.45475 0.43409,0.31695 0.66146,0.81993 0.22738,0.50298 0.22738,1.24712 z m -1.28847,-1.8948 v -2.14284 q -0.59255,0.0344 -1.3987,0.10335 -0.79927,0.0689 -1.2678,0.19981 -0.5581,0.15848 -0.90261,0.4961 -0.34451,0.33073 -0.34451,0.91639 0,0.66146 0.39963,0.99908 0.39963,0.33073 1.21956,0.33073 0.68213,0 1.24713,-0.26183 0.56499,-0.26872 1.0473,-0.64079 z"
         id="path17081" />
    </g>
    <g
       id="g24591"
       transform="translate(12.170835,5.2916669)">
      <rect
         style="fill:#d9ebf2;fill-opacity:1;stroke:#000000;stroke-width:0.5;stroke-miterlimit:4;stroke-dasharray:none;stroke-opacity:1"
         id="rect13164"
         width="18.143425"
         height="18.143425"
         x="215.03726"
         y="139.42828"
         rx="3.1553786"
         ry="3.1553786" />
      <g
         aria-label="b"
         id="text13168"
         style="font-size:14.1111px;line-height:1.25;-inkscape-font-specification:'sans-serif, Normal';stroke-width:0.264583"
         transform="translate(-4.7255252)">
        <path
           d="m 232.81264,149.01926 q 0,0.96463 -0.2756,1.73633 -0.26872,0.7717 -0.73036,1.29535 -0.48921,0.54433 -1.07487,0.81993 -0.58567,0.26872 -1.28847,0.26872 -0.65456,0 -1.14377,-0.15847 -0.4892,-0.15159 -0.96462,-0.41341 l -0.0827,0.35828 h -1.21267 v -10.72112 h 1.29536 v 3.83094 q 0.54432,-0.44786 1.15755,-0.73036 0.61322,-0.28939 1.37804,-0.28939 1.36425,0 2.14973,1.04731 0.79237,1.04731 0.79237,2.95589 z m -1.33669,0.0344 q 0,-1.37804 -0.45475,-2.08773 -0.45476,-0.71658 -1.46761,-0.71658 -0.565,0 -1.14377,0.24805 -0.57878,0.24116 -1.07487,0.62701 v 4.40972 q 0.55121,0.24804 0.94395,0.34451 0.39963,0.0965 0.90262,0.0965 1.07487,0 1.6812,-0.7028 0.61323,-0.70969 0.61323,-2.21864 z"
           id="path17087" />
      </g>
      <path
         style="fill:none;stroke:#000000;stroke-width:0.5;stroke-linecap:butt;stroke-linejoin:miter;stroke-miterlimit:4;stroke-dasharray:none;stroke-opacity:1"
         d="m 199.96958,123.84901 -8.34014,16.37118"
         id="path13170"
         sodipodi:nodetypes="cc" />
      <path
         style="fill:none;stroke:#000000;stroke-width:0.5;stroke-linecap:butt;stroke-linejoin:miter;stroke-miterlimit:4;stroke-dasharray:none;stroke-opacity:1"
         d="m 207.75761,123.84901 8.34014,16.37118"
         id="path13172"
         sodipodi:nodetypes="cc" />
      <circle
         style="fill:#e3f2d9;fill-opacity:1;stroke:#000000;stroke-width:0.642774;stroke-miterlimit:4;stroke-dasharray:none;stroke-opacity:1"
         id="circle13174"
         cx="203.8636"
         cy="118.03088"
         r="9.0001135" />
      <rect
         style="fill:#d9ebf2;fill-opacity:1;stroke:#000000;stroke-width:0.5;stroke-miterlimit:4;stroke-dasharray:none;stroke-opacity:1"
         id="rect17997"
         width="18.143425"
         height="18.143425"
         x="174.54651"
         y="139.42828"
         rx="3.1553786"
         ry="3.1553786" />
      <g
         aria-label="a"
         id="g18001"
         style="font-size:14.1111px;line-height:1.25;-inkscape-font-specification:'sans-serif, Normal';stroke-width:0.264583"
         transform="translate(78.618225)">
        <path
           d="m 108.26939,152.92599 h -1.28847 v -0.81993 q -0.17225,0.11714 -0.46853,0.33073 -0.28939,0.20671 -0.56499,0.33073 -0.32384,0.15847 -0.74414,0.26183 -0.42031,0.11024 -0.9853,0.11024 -1.04042,0 -1.76389,-0.68902 -0.72347,-0.68902 -0.72347,-1.757 0,-0.87505 0.37207,-1.41248 0.37896,-0.54433 1.07487,-0.85439 0.7028,-0.31005 1.6881,-0.4203 0.98529,-0.11024 2.11528,-0.16536 v -0.19982 q 0,-0.44097 -0.15847,-0.73036 -0.15158,-0.28938 -0.44097,-0.45475 -0.27561,-0.15847 -0.66146,-0.2136 -0.38585,-0.0551 -0.80615,-0.0551 -0.50988,0 -1.13688,0.13781 -0.62701,0.13091 -1.29536,0.38585 h -0.0689 v -1.31603 q 0.37896,-0.10335 1.09554,-0.22737 0.71658,-0.12403 1.41249,-0.12403 0.81304,0 1.41249,0.13781 0.60633,0.13091 1.0473,0.45475 0.43409,0.31695 0.66146,0.81993 0.22738,0.50298 0.22738,1.24712 z m -1.28847,-1.8948 v -2.14284 q -0.59255,0.0344 -1.3987,0.10335 -0.79927,0.0689 -1.2678,0.19981 -0.5581,0.15848 -0.90261,0.4961 -0.34451,0.33073 -0.34451,0.91639 0,0.66146 0.39963,0.99908 0.39963,0.33073 1.21956,0.33073 0.68213,0 1.24713,-0.26183 0.56499,-0.26872 1.0473,-0.64079 z"
           id="path17999" />
      </g>
      <g
         aria-label="1"
         id="text20898"
         style="font-size:14.1111px;line-height:1.25;-inkscape-font-specification:'sans-serif, Normal';stroke-width:0.264583">
        <path
           d="m 206.77264,123.04556 h -5.55349 v -1.04731 h 2.13596 v -6.8764 h -2.13596 v -0.93707 q 0.43408,0 0.93018,-0.0689 0.49609,-0.0758 0.75103,-0.21359 0.31695,-0.17226 0.49609,-0.43409 0.18604,-0.26871 0.2136,-0.71657 h 1.06798 v 9.24662 h 2.09461 z"
           id="path21171" />
      </g>
    </g>
    <g
       id="g24612"
       transform="translate(12.170835,5.2916669)">
      <rect
         style="fill:#d9ebf2;fill-opacity:1;stroke:#000000;stroke-width:0.5;stroke-miterlimit:4;stroke-dasharray:none;stroke-opacity:1"
         id="rect13624"
         width="18.143425"
         height="18.143425"
         x="350.27441"
         y="108.95896"
         rx="3.1553786"
         ry="3.1553786" />
      <g
         aria-label="c"
         id="text13628"
         style="font-size:14.1111px;line-height:1.25;-inkscape-font-specification:'sans-serif, Normal';stroke-width:0.264583"
         transform="translate(18.339681)">
        <path
           d="m 344.12769,121.97437 q -0.64768,0.31006 -1.23334,0.48232 -0.57878,0.17225 -1.23335,0.17225 -0.83371,0 -1.52962,-0.24115 -0.69591,-0.24805 -1.192,-0.74414 -0.50298,-0.4961 -0.77859,-1.25402 -0.27561,-0.75792 -0.27561,-1.77078 0,-1.88791 1.03353,-2.96278 1.04042,-1.07486 2.74229,-1.07486 0.66146,0 1.29536,0.18603 0.64079,0.18604 1.17133,0.45475 v 1.44005 h -0.0689 q -0.59256,-0.46164 -1.22645,-0.70969 -0.62701,-0.24804 -1.22646,-0.24804 -1.10243,0 -1.74321,0.74414 -0.6339,0.73725 -0.6339,2.1704 0,1.39182 0.62012,2.14285 0.627,0.74414 1.75699,0.74414 0.39274,0 0.79926,-0.10335 0.40652,-0.10335 0.73036,-0.26872 0.2825,-0.14469 0.53055,-0.30317 0.24804,-0.16536 0.39274,-0.28249 h 0.0689 z"
           id="path17230" />
      </g>
      <path
         style="fill:none;stroke:#000000;stroke-width:0.5;stroke-linecap:butt;stroke-linejoin:miter;stroke-miterlimit:4;stroke-dasharray:none;stroke-opacity:1"
         d="m 335.20671,93.379698 -8.34014,16.371182"
         id="path13630"
         sodipodi:nodetypes="cc" />
      <path
         style="fill:none;stroke:#000000;stroke-width:0.5;stroke-linecap:butt;stroke-linejoin:miter;stroke-miterlimit:4;stroke-dasharray:none;stroke-opacity:1"
         d="m 342.99474,93.379698 8.34014,16.371182"
         id="path13632"
         sodipodi:nodetypes="cc" />
      <circle
         style="fill:#e3f2d9;fill-opacity:1;stroke:#000000;stroke-width:0.642774;stroke-miterlimit:4;stroke-dasharray:none;stroke-opacity:1"
         id="circle13634"
         cx="339.10074"
         cy="87.561569"
         r="9.0001135" />
      <rect
         style="fill:#d9ebf2;fill-opacity:1;stroke:#000000;stroke-width:0.5;stroke-miterlimit:4;stroke-dasharray:none;stroke-opacity:1"
         id="rect13580"
         width="18.143425"
         height="18.143425"
         x="293.65549"
         y="139.42828"
         rx="3.1553786"
         ry="3.1553786" />
      <g
         aria-label="a"
         id="text13584"
         style="font-size:14.1111px;line-height:1.25;-inkscape-font-specification:'sans-serif, Normal';stroke-width:0.264583"
         transform="translate(18.339681)">
        <path
           d="m 287.65689,152.92599 h -1.28847 v -0.81993 q -0.17225,0.11714 -0.46853,0.33073 -0.28939,0.20671 -0.565,0.33073 -0.32384,0.15847 -0.74414,0.26183 -0.4203,0.11024 -0.98529,0.11024 -1.04042,0 -1.76389,-0.68902 -0.72347,-0.68902 -0.72347,-1.757 0,-0.87505 0.37207,-1.41248 0.37896,-0.54433 1.07487,-0.85439 0.7028,-0.31005 1.68809,-0.4203 0.9853,-0.11024 2.11529,-0.16536 v -0.19982 q 0,-0.44097 -0.15847,-0.73036 -0.15159,-0.28938 -0.44098,-0.45475 -0.2756,-0.15847 -0.66145,-0.2136 -0.38585,-0.0551 -0.80616,-0.0551 -0.50987,0 -1.13688,0.13781 -0.627,0.13091 -1.29535,0.38585 h -0.0689 v -1.31603 q 0.37896,-0.10335 1.09554,-0.22737 0.71658,-0.12403 1.41249,-0.12403 0.81304,0 1.41248,0.13781 0.60634,0.13091 1.04731,0.45475 0.43408,0.31695 0.66146,0.81993 0.22738,0.50298 0.22738,1.24712 z m -1.28847,-1.8948 v -2.14284 q -0.59256,0.0344 -1.39871,0.10335 -0.79926,0.0689 -1.26779,0.19981 -0.55811,0.15848 -0.90262,0.4961 -0.3445,0.33073 -0.3445,0.91639 0,0.66146 0.39963,0.99908 0.39963,0.33073 1.21956,0.33073 0.68213,0 1.24712,-0.26183 0.565,-0.26872 1.04731,-0.64079 z"
           id="path17221" />
      </g>
      <rect
         style="fill:#d9ebf2;fill-opacity:1;stroke:#000000;stroke-width:0.5;stroke-miterlimit:4;stroke-dasharray:none;stroke-opacity:1"
         id="rect13586"
         width="18.143425"
         height="18.143425"
         x="334.14624"
         y="139.42828"
         rx="3.1553786"
         ry="3.1553786" />
      <g
         aria-label="b"
         id="text13590"
         style="font-size:14.1111px;line-height:1.25;-inkscape-font-specification:'sans-serif, Normal';stroke-width:0.264583"
         transform="translate(18.339681)">
        <path
           d="m 328.85639,149.01926 q 0,0.96463 -0.27561,1.73633 -0.26871,0.7717 -0.73036,1.29535 -0.4892,0.54433 -1.07486,0.81993 -0.58567,0.26872 -1.28847,0.26872 -0.65457,0 -1.14377,-0.15847 -0.4892,-0.15159 -0.96463,-0.41341 l -0.0827,0.35828 h -1.21267 v -10.72112 h 1.29535 v 3.83094 q 0.54433,-0.44786 1.15756,-0.73036 0.61322,-0.28939 1.37803,-0.28939 1.36426,0 2.14974,1.04731 0.79237,1.04731 0.79237,2.95589 z m -1.33669,0.0344 q 0,-1.37804 -0.45476,-2.08773 -0.45475,-0.71658 -1.46761,-0.71658 -0.56499,0 -1.14377,0.24805 -0.57877,0.24116 -1.07487,0.62701 v 4.40972 q 0.55122,0.24804 0.94396,0.34451 0.39963,0.0965 0.90261,0.0965 1.07487,0 1.68121,-0.7028 0.61323,-0.70969 0.61323,-2.21864 z"
           id="path17233" />
      </g>
      <path
         style="fill:none;stroke:#000000;stroke-width:0.5;stroke-linecap:butt;stroke-linejoin:miter;stroke-miterlimit:4;stroke-dasharray:none;stroke-opacity:1"
         d="m 319.07854,123.84901 -8.34014,16.37118"
         id="path13592"
         sodipodi:nodetypes="cc" />
      <path
         style="fill:none;stroke:#000000;stroke-width:0.5;stroke-linecap:butt;stroke-linejoin:miter;stroke-miterlimit:4;stroke-dasharray:none;stroke-opacity:1"
         d="m 326.86657,123.84901 8.34014,16.37118"
         id="path13594"
         sodipodi:nodetypes="cc" />
      <circle
         style="fill:#e3f2d9;fill-opacity:1;stroke:#000000;stroke-width:0.642774;stroke-miterlimit:4;stroke-dasharray:none;stroke-opacity:1"
         id="circle13596"
         cx="322.97256"
         cy="118.03088"
         r="9.0001135" />
      <g
         aria-label="1"
         id="text20982"
         style="font-size:14.1111px;line-height:1.25;-inkscape-font-specification:'sans-serif, Normal';stroke-width:0.264583">
        <path
           d="m 342.00976,92.576241 h -5.55349 v -1.047309 h 2.13596 v -6.876405 h -2.13596 v -0.937065 q 0.43409,0 0.93018,-0.0689 0.49609,-0.07579 0.75103,-0.213596 0.31695,-0.172254 0.49609,-0.434082 0.18604,-0.268717 0.2136,-0.716579 h 1.06798 v 9.246629 h 2.09461 z"
           id="path21177" />
      </g>
      <g
         aria-label="1"
         id="text21066"
         style="font-size:14.1111px;line-height:1.25;-inkscape-font-specification:'sans-serif, Normal';stroke-width:0.264583">
        <path
           d="m 325.88159,123.04556 h -5.55349 v -1.04731 h 2.13596 v -6.8764 h -2.13596 v -0.93707 q 0.43408,0 0.93017,-0.0689 0.4961,-0.0758 0.75104,-0.21359 0.31694,-0.17226 0.49609,-0.43409 0.18603,-0.26871 0.21359,-0.71657 h 1.06798 v 9.24662 h 2.09462 z"
           id="path21174" />
      </g>
    </g>
    <g
       id="g24633"
       transform="translate(12.170835,5.2916669)">
      <rect
         style="fill:#d9ebf2;fill-opacity:1;stroke:#000000;stroke-width:0.5;stroke-miterlimit:4;stroke-dasharray:none;stroke-opacity:1"
         id="rect17874"
         width="18.143425"
         height="18.143425"
         x="485.14505"
         y="108.95896"
         rx="3.1553786"
         ry="3.1553786" />
      <g
         aria-label="c"
         id="g17878"
         style="font-size:14.1111px;line-height:1.25;-inkscape-font-specification:'sans-serif, Normal';stroke-width:0.264583"
         transform="translate(153.21032)">
        <path
           d="m 344.12769,121.97437 q -0.64768,0.31006 -1.23334,0.48232 -0.57878,0.17225 -1.23335,0.17225 -0.83371,0 -1.52962,-0.24115 -0.69591,-0.24805 -1.192,-0.74414 -0.50298,-0.4961 -0.77859,-1.25402 -0.27561,-0.75792 -0.27561,-1.77078 0,-1.88791 1.03353,-2.96278 1.04042,-1.07486 2.74229,-1.07486 0.66146,0 1.29536,0.18603 0.64079,0.18604 1.17133,0.45475 v 1.44005 h -0.0689 q -0.59256,-0.46164 -1.22645,-0.70969 -0.62701,-0.24804 -1.22646,-0.24804 -1.10243,0 -1.74321,0.74414 -0.6339,0.73725 -0.6339,2.1704 0,1.39182 0.62012,2.14285 0.627,0.74414 1.75699,0.74414 0.39274,0 0.79926,-0.10335 0.40652,-0.10335 0.73036,-0.26872 0.2825,-0.14469 0.53055,-0.30317 0.24804,-0.16536 0.39274,-0.28249 h 0.0689 z"
           id="path17876" />
      </g>
      <path
         style="fill:none;stroke:#000000;stroke-width:0.5;stroke-linecap:butt;stroke-linejoin:miter;stroke-miterlimit:4;stroke-dasharray:none;stroke-opacity:1"
         d="m 470.07735,93.379698 -8.34014,16.371182"
         id="path17880"
         sodipodi:nodetypes="cc" />
      <path
         style="fill:none;stroke:#000000;stroke-width:0.5;stroke-linecap:butt;stroke-linejoin:miter;stroke-miterlimit:4;stroke-dasharray:none;stroke-opacity:1"
         d="m 477.86538,93.379698 8.34014,16.371182"
         id="path17882"
         sodipodi:nodetypes="cc" />
      <circle
         style="fill:#e3f2d9;fill-opacity:1;stroke:#000000;stroke-width:0.642774;stroke-miterlimit:4;stroke-dasharray:none;stroke-opacity:1"
         id="circle17884"
         cx="473.97137"
         cy="87.561569"
         r="9.0001135" />
      <rect
         style="fill:#d9ebf2;fill-opacity:1;stroke:#000000;stroke-width:0.5;stroke-miterlimit:4;stroke-dasharray:none;stroke-opacity:1"
         id="rect17890"
         width="18.143425"
         height="18.143425"
         x="428.52612"
         y="139.42828"
         rx="3.1553786"
         ry="3.1553786" />
      <g
         aria-label="a"
         id="g17894"
         style="font-size:14.1111px;line-height:1.25;-inkscape-font-specification:'sans-serif, Normal';stroke-width:0.264583"
         transform="translate(153.21032)">
        <path
           d="m 287.65689,152.92599 h -1.28847 v -0.81993 q -0.17225,0.11714 -0.46853,0.33073 -0.28939,0.20671 -0.565,0.33073 -0.32384,0.15847 -0.74414,0.26183 -0.4203,0.11024 -0.98529,0.11024 -1.04042,0 -1.76389,-0.68902 -0.72347,-0.68902 -0.72347,-1.757 0,-0.87505 0.37207,-1.41248 0.37896,-0.54433 1.07487,-0.85439 0.7028,-0.31005 1.68809,-0.4203 0.9853,-0.11024 2.11529,-0.16536 v -0.19982 q 0,-0.44097 -0.15847,-0.73036 -0.15159,-0.28938 -0.44098,-0.45475 -0.2756,-0.15847 -0.66145,-0.2136 -0.38585,-0.0551 -0.80616,-0.0551 -0.50987,0 -1.13688,0.13781 -0.627,0.13091 -1.29535,0.38585 h -0.0689 v -1.31603 q 0.37896,-0.10335 1.09554,-0.22737 0.71658,-0.12403 1.41249,-0.12403 0.81304,0 1.41248,0.13781 0.60634,0.13091 1.04731,0.45475 0.43408,0.31695 0.66146,0.81993 0.22738,0.50298 0.22738,1.24712 z m -1.28847,-1.8948 v -2.14284 q -0.59256,0.0344 -1.39871,0.10335 -0.79926,0.0689 -1.26779,0.19981 -0.55811,0.15848 -0.90262,0.4961 -0.3445,0.33073 -0.3445,0.91639 0,0.66146 0.39963,0.99908 0.39963,0.33073 1.21956,0.33073 0.68213,0 1.24712,-0.26183 0.565,-0.26872 1.04731,-0.64079 z"
           id="path17892" />
      </g>
      <rect
         style="fill:#d9ebf2;fill-opacity:1;stroke:#000000;stroke-width:0.5;stroke-miterlimit:4;stroke-dasharray:none;stroke-opacity:1"
         id="rect17896"
         width="18.143425"
         height="18.143425"
         x="469.01688"
         y="139.42828"
         rx="3.1553786"
         ry="3.1553786" />
      <g
         aria-label="b"
         id="g17900"
         style="font-size:14.1111px;line-height:1.25;-inkscape-font-specification:'sans-serif, Normal';stroke-width:0.264583"
         transform="translate(153.21032)">
        <path
           d="m 328.85639,149.01926 q 0,0.96463 -0.27561,1.73633 -0.26871,0.7717 -0.73036,1.29535 -0.4892,0.54433 -1.07486,0.81993 -0.58567,0.26872 -1.28847,0.26872 -0.65457,0 -1.14377,-0.15847 -0.4892,-0.15159 -0.96463,-0.41341 l -0.0827,0.35828 h -1.21267 v -10.72112 h 1.29535 v 3.83094 q 0.54433,-0.44786 1.15756,-0.73036 0.61322,-0.28939 1.37803,-0.28939 1.36426,0 2.14974,1.04731 0.79237,1.04731 0.79237,2.95589 z m -1.33669,0.0344 q 0,-1.37804 -0.45476,-2.08773 -0.45475,-0.71658 -1.46761,-0.71658 -0.56499,0 -1.14377,0.24805 -0.57877,0.24116 -1.07487,0.62701 v 4.40972 q 0.55122,0.24804 0.94396,0.34451 0.39963,0.0965 0.90261,0.0965 1.07487,0 1.68121,-0.7028 0.61323,-0.70969 0.61323,-2.21864 z"
           id="path17898" />
      </g>
      <path
         style="fill:none;stroke:#000000;stroke-width:0.5;stroke-linecap:butt;stroke-linejoin:miter;stroke-miterlimit:4;stroke-dasharray:none;stroke-opacity:1"
         d="m 453.94918,123.84901 -8.34014,16.37118"
         id="path17902"
         sodipodi:nodetypes="cc" />
      <path
         style="fill:none;stroke:#000000;stroke-width:0.5;stroke-linecap:butt;stroke-linejoin:miter;stroke-miterlimit:4;stroke-dasharray:none;stroke-opacity:1"
         d="m 461.73721,123.84901 8.34014,16.37118"
         id="path17904"
         sodipodi:nodetypes="cc" />
      <circle
         style="fill:#e3f2d9;fill-opacity:1;stroke:#000000;stroke-width:0.642774;stroke-miterlimit:4;stroke-dasharray:none;stroke-opacity:1"
         id="circle17906"
         cx="457.8432"
         cy="118.03088"
         r="9.0001135" />
      <g
         aria-label="0"
         id="g17910"
         style="font-size:14.1111px;line-height:1.25;-inkscape-font-specification:'sans-serif, Normal';stroke-width:0.264583"
         transform="translate(153.21032)">
        <path
           d="m 308.18135,118.02399 q 0,2.76297 -0.86816,4.05832 -0.86128,1.28847 -2.68029,1.28847 -1.84657,0 -2.70095,-1.30914 -0.84749,-1.30913 -0.84749,-4.02387 0,-2.7354 0.86127,-4.03765 0.86127,-1.30913 2.68717,-1.30913 1.84657,0 2.69407,1.3298 0.85438,1.32292 0.85438,4.0032 z m -1.81212,3.12815 q 0.24116,-0.55811 0.32384,-1.30914 0.0896,-0.75792 0.0896,-1.81901 0,-1.04731 -0.0896,-1.81901 -0.0827,-0.7717 -0.33073,-1.30913 -0.24116,-0.53055 -0.66146,-0.79926 -0.41341,-0.26872 -1.06798,-0.26872 -0.64767,0 -1.07486,0.26872 -0.42031,0.26871 -0.66835,0.81304 -0.23427,0.50987 -0.32384,1.3298 -0.0827,0.81994 -0.0827,1.79834 0,1.07487 0.0758,1.79834 0.0758,0.72347 0.32384,1.29536 0.22737,0.53743 0.64078,0.81993 0.42031,0.2825 1.10932,0.2825 0.64768,0 1.07487,-0.26872 0.42719,-0.26872 0.66146,-0.81304 z"
           id="path17908" />
      </g>
      <g
         aria-label="1"
         id="text21169"
         style="font-size:14.1111px;line-height:1.25;-inkscape-font-specification:'sans-serif, Normal';stroke-width:0.264583">
        <path
           d="m 476.8804,92.576241 h -5.55349 v -1.047309 h 2.13596 v -6.876405 h -2.13596 v -0.937065 q 0.43408,0 0.93017,-0.0689 0.4961,-0.07579 0.75103,-0.213596 0.31695,-0.172254 0.4961,-0.434082 0.18603,-0.268717 0.21359,-0.716579 h 1.06798 v 9.246629 h 2.09462 z"
           id="path21180" />
      </g>
    </g>
    <g
       id="g24930"
       transform="translate(12.170835,-4.2333335)">
      <g
         id="g24578"
         transform="translate(0,10.054167)">
        <circle
           style="fill:#000000;fill-opacity:1;stroke:none;stroke-width:0.499999;stroke-miterlimit:4;stroke-dasharray:none;stroke-opacity:1"
           id="path21404"
           cx="104.99999"
           cy="222.90472"
           r="3.1419272" />
        <g
           aria-label="a"
           id="g21644"
           style="font-size:14.1111px;line-height:1.25;-inkscape-font-specification:'sans-serif, Normal';stroke-width:0.264583"
           transform="translate(0,85.656235)">
          <path
             d="m 108.26939,152.92599 h -1.28847 v -0.81993 q -0.17225,0.11714 -0.46853,0.33073 -0.28939,0.20671 -0.56499,0.33073 -0.32384,0.15847 -0.74414,0.26183 -0.42031,0.11024 -0.9853,0.11024 -1.04042,0 -1.76389,-0.68902 -0.72347,-0.68902 -0.72347,-1.757 0,-0.87505 0.37207,-1.41248 0.37896,-0.54433 1.07487,-0.85439 0.7028,-0.31005 1.6881,-0.4203 0.98529,-0.11024 2.11528,-0.16536 v -0.19982 q 0,-0.44097 -0.15847,-0.73036 -0.15158,-0.28938 -0.44097,-0.45475 -0.27561,-0.15847 -0.66146,-0.2136 -0.38585,-0.0551 -0.80615,-0.0551 -0.50988,0 -1.13688,0.13781 -0.62701,0.13091 -1.29536,0.38585 h -0.0689 v -1.31603 q 0.37896,-0.10335 1.09554,-0.22737 0.71658,-0.12403 1.41249,-0.12403 0.81304,0 1.41249,0.13781 0.60633,0.13091 1.0473,0.45475 0.43409,0.31695 0.66146,0.81993 0.22738,0.50298 0.22738,1.24712 z m -1.28847,-1.8948 v -2.14284 q -0.59255,0.0344 -1.3987,0.10335 -0.79927,0.0689 -1.2678,0.19981 -0.5581,0.15848 -0.90261,0.4961 -0.34451,0.33073 -0.34451,0.91639 0,0.66146 0.39963,0.99908 0.39963,0.33073 1.21956,0.33073 0.68213,0 1.24713,-0.26183 0.56499,-0.26872 1.0473,-0.64079 z"
             id="path21642" />
        </g>
      </g>
      <g
         id="g24556"
         transform="translate(-0.35437203,10.054167)">
        <g
           id="g24253"
           transform="translate(0,50.069777)">
          <g
             aria-label="b"
             id="g21755"
             style="font-size:14.1111px;line-height:1.25;-inkscape-font-specification:'sans-serif, Normal';stroke-width:0.264583"
             transform="translate(-4.7255252,35.586458)">
            <path
               d="m 232.81264,149.01926 q 0,0.96463 -0.2756,1.73633 -0.26872,0.7717 -0.73036,1.29535 -0.48921,0.54433 -1.07487,0.81993 -0.58567,0.26872 -1.28847,0.26872 -0.65456,0 -1.14377,-0.15847 -0.4892,-0.15159 -0.96462,-0.41341 l -0.0827,0.35828 h -1.21267 v -10.72112 h 1.29536 v 3.83094 q 0.54432,-0.44786 1.15755,-0.73036 0.61322,-0.28939 1.37804,-0.28939 1.36425,0 2.14973,1.04731 0.79237,1.04731 0.79237,2.95589 z m -1.33669,0.0344 q 0,-1.37804 -0.45475,-2.08773 -0.45476,-0.71658 -1.46761,-0.71658 -0.565,0 -1.14377,0.24805 -0.57878,0.24116 -1.07487,0.62701 v 4.40972 q 0.55121,0.24804 0.94395,0.34451 0.39963,0.0965 0.90262,0.0965 1.07487,0 1.6812,-0.7028 0.61323,-0.70969 0.61323,-2.21864 z"
               id="path21753" />
          </g>
          <g
             aria-label="a"
             id="g21759"
             style="font-size:14.1111px;line-height:1.25;-inkscape-font-specification:'sans-serif, Normal';stroke-width:0.264583"
             transform="translate(78.618225,35.586458)">
            <path
               d="m 108.26939,152.92599 h -1.28847 v -0.81993 q -0.17225,0.11714 -0.46853,0.33073 -0.28939,0.20671 -0.56499,0.33073 -0.32384,0.15847 -0.74414,0.26183 -0.42031,0.11024 -0.9853,0.11024 -1.04042,0 -1.76389,-0.68902 -0.72347,-0.68902 -0.72347,-1.757 0,-0.87505 0.37207,-1.41248 0.37896,-0.54433 1.07487,-0.85439 0.7028,-0.31005 1.6881,-0.4203 0.98529,-0.11024 2.11528,-0.16536 v -0.19982 q 0,-0.44097 -0.15847,-0.73036 -0.15158,-0.28938 -0.44097,-0.45475 -0.27561,-0.15847 -0.66146,-0.2136 -0.38585,-0.0551 -0.80615,-0.0551 -0.50988,0 -1.13688,0.13781 -0.62701,0.13091 -1.29536,0.38585 h -0.0689 v -1.31603 q 0.37896,-0.10335 1.09554,-0.22737 0.71658,-0.12403 1.41249,-0.12403 0.81304,0 1.41249,0.13781 0.60633,0.13091 1.0473,0.45475 0.43409,0.31695 0.66146,0.81993 0.22738,0.50298 0.22738,1.24712 z m -1.28847,-1.8948 v -2.14284 q -0.59255,0.0344 -1.3987,0.10335 -0.79927,0.0689 -1.2678,0.19981 -0.5581,0.15848 -0.90261,0.4961 -0.34451,0.33073 -0.34451,0.91639 0,0.66146 0.39963,0.99908 0.39963,0.33073 1.21956,0.33073 0.68213,0 1.24713,-0.26183 0.56499,-0.26872 1.0473,-0.64079 z"
               id="path21757" />
          </g>
        </g>
        <g
           id="g24258"
           transform="translate(0,24.582887)">
          <circle
             style="fill:#000000;fill-opacity:1;stroke:none;stroke-width:0.499999;stroke-miterlimit:4;stroke-dasharray:none;stroke-opacity:1"
             id="circle21745"
             cx="183.61823"
             cy="198.32184"
             r="3.1419272" />
          <circle
             style="fill:#000000;fill-opacity:1;stroke:none;stroke-width:0.499999;stroke-miterlimit:4;stroke-dasharray:none;stroke-opacity:1"
             id="circle21771"
             cx="224.70059"
             cy="198.32184"
             r="3.1419272" />
          <path
             style="fill:none;stroke:#000000;stroke-width:0.5;stroke-linecap:butt;stroke-linejoin:miter;stroke-miterlimit:4;stroke-dasharray:none;stroke-opacity:1;marker-end:url(#Arrow1Lend)"
             d="m 183.61823,198.32184 h 37.28562"
             id="path21806"
             sodipodi:nodetypes="cc" />
        </g>
      </g>
      <g
         id="g24573"
         transform="translate(7.7097371,10.054167)">
        <path
           style="fill:#e3f2d9;fill-opacity:1;stroke:none;stroke-width:0.264583px;stroke-linecap:butt;stroke-linejoin:miter;stroke-opacity:1"
           d="m 323.3269,191.22091 -20.54117,31.68381 h 41.08237 z"
           id="path23994" />
        <circle
           style="fill:#000000;fill-opacity:1;stroke:none;stroke-width:0.499999;stroke-miterlimit:4;stroke-dasharray:none;stroke-opacity:1"
           id="path21404-3"
           cx="323.3269"
           cy="191.22092"
           r="3.1419272" />
        <g
           aria-label="c"
           id="g22451"
           style="font-size:14.1111px;line-height:1.25;-inkscape-font-specification:'sans-serif, Normal';stroke-width:0.264583"
           transform="translate(-17.679531,61.672232)">
          <path
             d="m 344.12769,121.97437 q -0.64768,0.31006 -1.23334,0.48232 -0.57878,0.17225 -1.23335,0.17225 -0.83371,0 -1.52962,-0.24115 -0.69591,-0.24805 -1.192,-0.74414 -0.50298,-0.4961 -0.77859,-1.25402 -0.27561,-0.75792 -0.27561,-1.77078 0,-1.88791 1.03353,-2.96278 1.04042,-1.07486 2.74229,-1.07486 0.66146,0 1.29536,0.18603 0.64079,0.18604 1.17133,0.45475 v 1.44005 h -0.0689 q -0.59256,-0.46164 -1.22645,-0.70969 -0.62701,-0.24804 -1.22646,-0.24804 -1.10243,0 -1.74321,0.74414 -0.6339,0.73725 -0.6339,2.1704 0,1.39182 0.62012,2.14285 0.627,0.74414 1.75699,0.74414 0.39274,0 0.79926,-0.10335 0.40652,-0.10335 0.73036,-0.26872 0.2825,-0.14469 0.53055,-0.30317 0.24804,-0.16536 0.39274,-0.28249 h 0.0689 z"
             id="path22449" />
        </g>
        <g
           id="g22471"
           transform="translate(0,13.160402)">
          <g
             aria-label="a"
             id="g22455"
             style="font-size:14.1111px;line-height:1.25;-inkscape-font-specification:'sans-serif, Normal';stroke-width:0.264583"
             transform="translate(18.339681,72.495833)">
            <path
               d="m 287.65689,152.92599 h -1.28847 v -0.81993 q -0.17225,0.11714 -0.46853,0.33073 -0.28939,0.20671 -0.565,0.33073 -0.32384,0.15847 -0.74414,0.26183 -0.4203,0.11024 -0.98529,0.11024 -1.04042,0 -1.76389,-0.68902 -0.72347,-0.68902 -0.72347,-1.757 0,-0.87505 0.37207,-1.41248 0.37896,-0.54433 1.07487,-0.85439 0.7028,-0.31005 1.68809,-0.4203 0.9853,-0.11024 2.11529,-0.16536 v -0.19982 q 0,-0.44097 -0.15847,-0.73036 -0.15159,-0.28938 -0.44098,-0.45475 -0.2756,-0.15847 -0.66145,-0.2136 -0.38585,-0.0551 -0.80616,-0.0551 -0.50987,0 -1.13688,0.13781 -0.627,0.13091 -1.29535,0.38585 h -0.0689 v -1.31603 q 0.37896,-0.10335 1.09554,-0.22737 0.71658,-0.12403 1.41249,-0.12403 0.81304,0 1.41248,0.13781 0.60634,0.13091 1.04731,0.45475 0.43408,0.31695 0.66146,0.81993 0.22738,0.50298 0.22738,1.24712 z m -1.28847,-1.8948 v -2.14284 q -0.59256,0.0344 -1.39871,0.10335 -0.79926,0.0689 -1.26779,0.19981 -0.55811,0.15848 -0.90262,0.4961 -0.3445,0.33073 -0.3445,0.91639 0,0.66146 0.39963,0.99908 0.39963,0.33073 1.21956,0.33073 0.68213,0 1.24712,-0.26183 0.565,-0.26872 1.04731,-0.64079 z"
               id="path22453" />
          </g>
          <g
             aria-label="b"
             id="g22459"
             style="font-size:14.1111px;line-height:1.25;-inkscape-font-specification:'sans-serif, Normal';stroke-width:0.264583"
             transform="translate(18.339681,72.495833)">
            <path
               d="m 328.85639,149.01926 q 0,0.96463 -0.27561,1.73633 -0.26871,0.7717 -0.73036,1.29535 -0.4892,0.54433 -1.07486,0.81993 -0.58567,0.26872 -1.28847,0.26872 -0.65457,0 -1.14377,-0.15847 -0.4892,-0.15159 -0.96463,-0.41341 l -0.0827,0.35828 h -1.21267 v -10.72112 h 1.29535 v 3.83094 q 0.54433,-0.44786 1.15756,-0.73036 0.61322,-0.28939 1.37803,-0.28939 1.36426,0 2.14974,1.04731 0.79237,1.04731 0.79237,2.95589 z m -1.33669,0.0344 q 0,-1.37804 -0.45476,-2.08773 -0.45475,-0.71658 -1.46761,-0.71658 -0.56499,0 -1.14377,0.24805 -0.57877,0.24116 -1.07487,0.62701 v 4.40972 q 0.55122,0.24804 0.94396,0.34451 0.39963,0.0965 0.90261,0.0965 1.07487,0 1.68121,-0.7028 0.61323,-0.70969 0.61323,-2.21864 z"
               id="path22457" />
          </g>
        </g>
        <g
           id="g23518"
           transform="translate(0,13.470384)">
          <circle
             style="fill:#000000;fill-opacity:1;stroke:none;stroke-width:0.499999;stroke-miterlimit:4;stroke-dasharray:none;stroke-opacity:1"
             id="circle22461"
             cx="302.78574"
             cy="209.43434"
             r="3.1419272" />
          <circle
             style="fill:#000000;fill-opacity:1;stroke:none;stroke-width:0.499999;stroke-miterlimit:4;stroke-dasharray:none;stroke-opacity:1"
             id="circle22463"
             cx="343.8681"
             cy="209.43434"
             r="3.1419272" />
          <path
             style="fill:none;stroke:#000000;stroke-width:0.5;stroke-linecap:butt;stroke-linejoin:miter;stroke-miterlimit:4;stroke-dasharray:none;stroke-opacity:1;marker-end:url(#Arrow1Lend)"
             d="m 302.78575,209.43434 h 37.21283"
             id="path22465"
             sodipodi:nodetypes="cc" />
        </g>
        <path
           style="fill:none;stroke:#000000;stroke-width:0.5;stroke-linecap:butt;stroke-linejoin:miter;stroke-miterlimit:4;stroke-dasharray:none;stroke-opacity:1;marker-end:url(#Arrow1Lend)"
           d="m 302.45502,222.77243 18.77896,-28.34826"
           id="path22503"
           sodipodi:nodetypes="cc" />
        <path
           style="fill:none;stroke:#000000;stroke-width:0.5;stroke-linecap:butt;stroke-linejoin:miter;stroke-miterlimit:4;stroke-dasharray:none;stroke-opacity:1;marker-end:url(#Arrow1Lend)"
           d="m 343.8681,222.90472 -18.51444,-28.4231"
           id="path22661"
           sodipodi:nodetypes="cc" />
      </g>
      <g
         id="g24545"
         transform="translate(26.211223,10.054167)">
        <circle
           style="fill:#000000;fill-opacity:1;stroke:none;stroke-width:0.499999;stroke-miterlimit:4;stroke-dasharray:none;stroke-opacity:1"
           id="circle24262"
           cx="439.69604"
           cy="191.22092"
           r="3.1419272" />
        <g
           aria-label="c"
           id="g24266"
           style="font-size:14.1111px;line-height:1.25;-inkscape-font-specification:'sans-serif, Normal';stroke-width:0.264583"
           transform="translate(98.689621,61.672232)">
          <path
             d="m 344.12769,121.97437 q -0.64768,0.31006 -1.23334,0.48232 -0.57878,0.17225 -1.23335,0.17225 -0.83371,0 -1.52962,-0.24115 -0.69591,-0.24805 -1.192,-0.74414 -0.50298,-0.4961 -0.77859,-1.25402 -0.27561,-0.75792 -0.27561,-1.77078 0,-1.88791 1.03353,-2.96278 1.04042,-1.07486 2.74229,-1.07486 0.66146,0 1.29536,0.18603 0.64079,0.18604 1.17133,0.45475 v 1.44005 h -0.0689 q -0.59256,-0.46164 -1.22645,-0.70969 -0.62701,-0.24804 -1.22646,-0.24804 -1.10243,0 -1.74321,0.74414 -0.6339,0.73725 -0.6339,2.1704 0,1.39182 0.62012,2.14285 0.627,0.74414 1.75699,0.74414 0.39274,0 0.79926,-0.10335 0.40652,-0.10335 0.73036,-0.26872 0.2825,-0.14469 0.53055,-0.30317 0.24804,-0.16536 0.39274,-0.28249 h 0.0689 z"
             id="path24264" />
        </g>
        <g
           id="g24276"
           transform="translate(116.36915,13.160402)">
          <g
             aria-label="a"
             id="g24270"
             style="font-size:14.1111px;line-height:1.25;-inkscape-font-specification:'sans-serif, Normal';stroke-width:0.264583"
             transform="translate(18.339681,72.495833)">
            <path
               d="m 287.65689,152.92599 h -1.28847 v -0.81993 q -0.17225,0.11714 -0.46853,0.33073 -0.28939,0.20671 -0.565,0.33073 -0.32384,0.15847 -0.74414,0.26183 -0.4203,0.11024 -0.98529,0.11024 -1.04042,0 -1.76389,-0.68902 -0.72347,-0.68902 -0.72347,-1.757 0,-0.87505 0.37207,-1.41248 0.37896,-0.54433 1.07487,-0.85439 0.7028,-0.31005 1.68809,-0.4203 0.9853,-0.11024 2.11529,-0.16536 v -0.19982 q 0,-0.44097 -0.15847,-0.73036 -0.15159,-0.28938 -0.44098,-0.45475 -0.2756,-0.15847 -0.66145,-0.2136 -0.38585,-0.0551 -0.80616,-0.0551 -0.50987,0 -1.13688,0.13781 -0.627,0.13091 -1.29535,0.38585 h -0.0689 v -1.31603 q 0.37896,-0.10335 1.09554,-0.22737 0.71658,-0.12403 1.41249,-0.12403 0.81304,0 1.41248,0.13781 0.60634,0.13091 1.04731,0.45475 0.43408,0.31695 0.66146,0.81993 0.22738,0.50298 0.22738,1.24712 z m -1.28847,-1.8948 v -2.14284 q -0.59256,0.0344 -1.39871,0.10335 -0.79926,0.0689 -1.26779,0.19981 -0.55811,0.15848 -0.90262,0.4961 -0.3445,0.33073 -0.3445,0.91639 0,0.66146 0.39963,0.99908 0.39963,0.33073 1.21956,0.33073 0.68213,0 1.24712,-0.26183 0.565,-0.26872 1.04731,-0.64079 z"
               id="path24268" />
          </g>
          <g
             aria-label="b"
             id="g24274"
             style="font-size:14.1111px;line-height:1.25;-inkscape-font-specification:'sans-serif, Normal';stroke-width:0.264583"
             transform="translate(18.339681,72.495833)">
            <path
               d="m 328.85639,149.01926 q 0,0.96463 -0.27561,1.73633 -0.26871,0.7717 -0.73036,1.29535 -0.4892,0.54433 -1.07486,0.81993 -0.58567,0.26872 -1.28847,0.26872 -0.65457,0 -1.14377,-0.15847 -0.4892,-0.15159 -0.96463,-0.41341 l -0.0827,0.35828 h -1.21267 v -10.72112 h 1.29535 v 3.83094 q 0.54433,-0.44786 1.15756,-0.73036 0.61322,-0.28939 1.37803,-0.28939 1.36426,0 2.14974,1.04731 0.79237,1.04731 0.79237,2.95589 z m -1.33669,0.0344 q 0,-1.37804 -0.45476,-2.08773 -0.45475,-0.71658 -1.46761,-0.71658 -0.56499,0 -1.14377,0.24805 -0.57877,0.24116 -1.07487,0.62701 v 4.40972 q 0.55122,0.24804 0.94396,0.34451 0.39963,0.0965 0.90261,0.0965 1.07487,0 1.68121,-0.7028 0.61323,-0.70969 0.61323,-2.21864 z"
               id="path24272" />
          </g>
        </g>
        <circle
           style="fill:#000000;fill-opacity:1;stroke:none;stroke-width:0.499999;stroke-miterlimit:4;stroke-dasharray:none;stroke-opacity:1"
           id="circle24278"
           cx="419.15488"
           cy="222.90472"
           r="3.1419272" />
        <circle
           style="fill:#000000;fill-opacity:1;stroke:none;stroke-width:0.499999;stroke-miterlimit:4;stroke-dasharray:none;stroke-opacity:1"
           id="circle24280"
           cx="460.23724"
           cy="222.90472"
           r="3.1419272" />
        <path
           style="fill:none;stroke:#000000;stroke-width:0.5;stroke-linecap:butt;stroke-linejoin:miter;stroke-miterlimit:4;stroke-dasharray:none;stroke-opacity:1;marker-end:url(#Arrow1Lend)"
           d="m 418.82417,222.77243 18.77896,-28.34826"
           id="path24286"
           sodipodi:nodetypes="cc" />
        <path
           style="fill:none;stroke:#000000;stroke-width:0.5;stroke-linecap:butt;stroke-linejoin:miter;stroke-miterlimit:4;stroke-dasharray:none;stroke-opacity:1;marker-end:url(#Arrow1Lend)"
           d="m 460.23725,222.90472 -18.51444,-28.4231"
           id="path24288"
           sodipodi:nodetypes="cc" />
      </g>
    </g>
    <path
       style="fill:none;stroke:#000000;stroke-width:0.5;stroke-linecap:butt;stroke-linejoin:miter;stroke-miterlimit:4;stroke-dasharray:4, 1, 0.5, 1;stroke-dashoffset:0;stroke-opacity:1"
       d="M 46.925602,174.70631 H 544.58144"
       id="path24668"
       sodipodi:nodetypes="cc" />
    <g
       aria-label="Simplicial sets"
       id="text27596"
       style="font-size:10.5833px;line-height:1.25;stroke-width:0.264583">
      <path
         d="m 56.619652,184.52143 q 0,0.44958 -0.211872,0.88883 -0.206705,0.43925 -0.583942,0.74414 -0.41341,0.33072 -0.966346,0.51676 -0.547769,0.18603 -1.322913,0.18603 -0.831988,0 -1.498612,-0.15503 -0.661456,-0.15503 -1.34875,-0.45992 v -1.28157 h 0.07235 q 0.583941,0.48576 1.34875,0.74931 0.764809,0.26355 1.4366,0.26355 0.950844,0 1.477942,-0.35657 0.532265,-0.35656 0.532265,-0.95084 0,-0.5116 -0.253214,-0.75447 -0.248046,-0.24288 -0.759641,-0.37724 -0.387572,-0.10335 -0.842323,-0.17053 -0.449583,-0.0672 -0.956011,-0.17053 -1.02319,-0.21705 -1.519282,-0.73898 -0.490925,-0.52709 -0.490925,-1.36942 0,-0.96634 0.816485,-1.58129 0.816485,-0.62012 2.072219,-0.62012 0.811317,0 1.488276,0.15503 0.676959,0.15503 1.19889,0.38241 v 1.20922 h -0.07235 Q 55.798,180.25813 55.0797,180.01525 q -0.713133,-0.24804 -1.462439,-0.24804 -0.821652,0 -1.322912,0.34106 -0.496092,0.34107 -0.496092,0.8785 0,0.48059 0.248046,0.75447 0.248046,0.27389 0.873329,0.41858 0.330728,0.0724 0.940508,0.1757 0.60978,0.10335 1.033525,0.21187 0.857826,0.22738 1.291907,0.6873 0.43408,0.45991 0.43408,1.28674 z"
         id="path29993" />
      <path
         d="m 59.229304,179.97908 h -1.095537 v -1.00769 h 1.095537 z m -0.06201,6.73859 H 58.19578 v -5.77224 h 0.971514 z"
         id="path29995" />
      <path
         d="m 69.512881,186.71767 h -0.971514 v -3.28661 q 0,-0.37207 -0.03617,-0.7183 -0.03101,-0.34624 -0.139526,-0.55294 -0.118856,-0.22221 -0.341064,-0.3359 -0.222207,-0.11368 -0.640785,-0.11368 -0.408243,0 -0.816485,0.2067 -0.408243,0.20154 -0.816485,0.51676 0.0155,0.11886 0.02584,0.27906 0.01033,0.15502 0.01033,0.31005 v 3.69486 h -0.971514 v -3.28661 q 0,-0.38241 -0.03617,-0.72347 -0.03101,-0.34623 -0.139526,-0.55294 -0.118855,-0.22221 -0.341063,-0.33073 -0.222208,-0.11368 -0.640786,-0.11368 -0.397907,0 -0.800982,0.19637 -0.397908,0.19637 -0.795815,0.50126 v 4.3098 h -0.971514 v -5.77224 h 0.971514 v 0.64078 q 0.454751,-0.37723 0.904335,-0.58911 0.454751,-0.21187 0.966346,-0.21187 0.58911,0 0.997352,0.24805 0.41341,0.24804 0.614948,0.68729 0.589109,-0.49609 1.074866,-0.71313 0.485757,-0.22221 1.038693,-0.22221 0.950843,0 1.400427,0.57878 0.454751,0.5736 0.454751,1.60713 z"
         id="path29997" />
      <path
         d="m 76.463339,183.76178 q 0,0.7028 -0.201537,1.28674 -0.201538,0.57878 -0.568439,0.98185 -0.341063,0.38241 -0.80615,0.59428 -0.459919,0.2067 -0.976681,0.2067 -0.449584,0 -0.816485,-0.0982 -0.361734,-0.0982 -0.738971,-0.30489 v 2.41845 h -0.971514 v -7.9013 h 0.971514 v 0.60461 q 0.387572,-0.32556 0.868161,-0.5426 0.485757,-0.22221 1.033526,-0.22221 1.04386,0 1.622635,0.79065 0.583941,0.78548 0.583941,2.1859 z m -1.002519,0.0258 q 0,-1.04386 -0.356566,-1.56062 -0.356567,-0.51676 -1.095537,-0.51676 -0.418578,0 -0.842324,0.18086 -0.423745,0.18087 -0.811317,0.47542 v 3.27111 q 0.41341,0.18604 0.707965,0.25322 0.299722,0.0672 0.676959,0.0672 0.811317,0 1.266069,-0.54777 0.454751,-0.54777 0.454751,-1.62264 z"
         id="path29999" />
      <path
         d="m 78.959302,186.71767 h -0.971513 v -8.04083 h 0.971513 z"
         id="path30001" />
      <path
         d="m 81.925521,179.97908 h -1.095537 v -1.00769 h 1.095537 z m -0.06201,6.73859 h -0.971514 v -5.77224 h 0.971514 z"
         id="path30003" />
      <path
         d="m 88.054328,186.35593 q -0.485757,0.23255 -0.925006,0.36174 -0.43408,0.12919 -0.925005,0.12919 -0.625283,0 -1.147213,-0.18087 -0.52193,-0.18603 -0.893999,-0.5581 -0.377237,-0.37207 -0.583942,-0.94051 -0.206705,-0.56844 -0.206705,-1.32808 0,-1.41593 0.775144,-2.22208 0.780311,-0.80615 2.056715,-0.80615 0.496092,0 0.971514,0.13953 0.480589,0.13952 0.878497,0.34106 v 1.08003 h -0.05168 q -0.444416,-0.34623 -0.919837,-0.53226 -0.470254,-0.18604 -0.919838,-0.18604 -0.82682,0 -1.307409,0.55811 -0.475422,0.55293 -0.475422,1.6278 0,1.04386 0.465086,1.60713 0.470254,0.5581 1.317745,0.5581 0.294555,0 0.599445,-0.0775 0.30489,-0.0775 0.547768,-0.20154 0.211873,-0.10852 0.397908,-0.22737 0.186034,-0.12403 0.294554,-0.21188 h 0.05168 z"
         id="path30005" />
      <path
         d="m 90.343583,179.97908 h -1.095536 v -1.00769 h 1.095536 z m -0.06201,6.73859 h -0.971514 v -5.77224 h 0.971514 z"
         id="path30007" />
      <path
         d="m 96.689432,186.71767 h -0.966346 v -0.61495 q -0.129191,0.0879 -0.351399,0.24805 -0.21704,0.15502 -0.423745,0.24804 -0.242879,0.11886 -0.558104,0.19637 -0.315225,0.0827 -0.738971,0.0827 -0.780311,0 -1.322912,-0.51676 -0.542601,-0.51676 -0.542601,-1.31774 0,-0.65629 0.279052,-1.05937 0.284219,-0.40824 0.80615,-0.64078 0.527098,-0.23255 1.266068,-0.31523 0.738971,-0.0827 1.586462,-0.12402 v -0.14986 q 0,-0.33073 -0.118856,-0.54777 -0.113687,-0.21704 -0.330728,-0.34106 -0.206705,-0.11886 -0.496092,-0.1602 -0.289387,-0.0413 -0.604612,-0.0413 -0.382405,0 -0.852659,0.10335 -0.470254,0.0982 -0.971514,0.28939 h -0.05168 v -0.98702 q 0.28422,-0.0775 0.821653,-0.17053 0.537433,-0.093 1.059363,-0.093 0.60978,0 1.059364,0.10335 0.454751,0.0982 0.785479,0.34107 0.325561,0.23771 0.496092,0.61495 0.170532,0.37723 0.170532,0.93534 z m -0.966346,-1.4211 v -1.60713 q -0.444416,0.0258 -1.049028,0.0775 -0.599445,0.0517 -0.950844,0.14986 -0.418578,0.11886 -0.676959,0.37207 -0.258381,0.24805 -0.258381,0.6873 0,0.49609 0.299722,0.7493 0.299722,0.24805 0.91467,0.24805 0.511595,0 0.935341,-0.19637 0.423745,-0.20154 0.785479,-0.48059 z"
         id="path30009" />
      <path
         d="m 99.541959,186.71767 h -0.971514 v -8.04083 h 0.971514 z"
         id="path30011" />
      <path
         d="m 109.30878,185.05369 q 0,0.79065 -0.65629,1.29708 -0.65112,0.50642 -1.78283,0.50642 -0.64079,0 -1.17822,-0.14986 -0.53227,-0.15503 -0.894,-0.33589 v -1.09037 h 0.0517 q 0.45991,0.34623 1.02319,0.55293 0.56327,0.20154 1.08003,0.20154 0.64079,0 1.00252,-0.20671 0.36173,-0.2067 0.36173,-0.65112 0,-0.34106 -0.19637,-0.51676 -0.19637,-0.1757 -0.75447,-0.29972 -0.20671,-0.0465 -0.5426,-0.10852 -0.33073,-0.062 -0.60461,-0.13436 -0.75964,-0.20154 -1.08004,-0.58911 -0.31522,-0.39274 -0.31522,-0.96118 0,-0.35656 0.14469,-0.67179 0.14986,-0.31522 0.44958,-0.56327 0.28939,-0.24288 0.73381,-0.3824 0.44958,-0.1447 1.00252,-0.1447 0.51676,0 1.04386,0.12919 0.53226,0.12403 0.88366,0.30489 v 1.0387 h -0.0517 q -0.37207,-0.27389 -0.90434,-0.45992 -0.53226,-0.19121 -1.04386,-0.19121 -0.53227,0 -0.89917,0.20671 -0.3669,0.20154 -0.3669,0.60461 0,0.35657 0.22221,0.53743 0.21704,0.18087 0.7028,0.29456 0.26871,0.062 0.59944,0.12402 0.3359,0.062 0.55811,0.11369 0.67695,0.15503 1.04386,0.53227 0.3669,0.3824 0.3669,1.01285 z"
         id="path30013" />
      <path
         d="m 115.5306,183.93232 h -4.25296 q 0,0.53226 0.1602,0.93017 0.16019,0.39274 0.43924,0.64595 0.26872,0.24805 0.63562,0.37207 0.37207,0.12402 0.81649,0.12402 0.58911,0 1.18338,-0.23254 0.59945,-0.23771 0.85266,-0.46509 h 0.0517 v 1.05937 q -0.49093,0.2067 -1.00252,0.34623 -0.5116,0.13952 -1.07487,0.13952 -1.4366,0 -2.24275,-0.77514 -0.80615,-0.78031 -0.80615,-2.21174 0,-1.41593 0.76998,-2.24792 0.77514,-0.83199 2.03604,-0.83199 1.16789,0 1.79834,0.68213 0.63562,0.68212 0.63562,1.93786 z m -0.94568,-0.74414 q -0.005,-0.76481 -0.38757,-1.18339 -0.37724,-0.41858 -1.15238,-0.41858 -0.78031,0 -1.2454,0.45992 -0.45992,0.45992 -0.52193,1.14205 z"
         id="path30015" />
      <path
         d="m 120.00059,186.66599 q -0.27388,0.0724 -0.59944,0.11886 -0.32039,0.0465 -0.57361,0.0465 -0.88366,0 -1.34358,-0.47542 -0.45992,-0.47542 -0.45992,-1.52445 v -3.06957 h -0.65629 v -0.81648 h 0.65629 v -1.65881 h 0.97151 v 1.65881 h 2.00504 v 0.81648 h -2.00504 v 2.63032 q 0,0.45476 0.0207,0.71314 0.0207,0.25321 0.14469,0.47542 0.11369,0.2067 0.31006,0.30489 0.20153,0.093 0.60978,0.093 0.23771,0 0.49609,-0.0672 0.25838,-0.0724 0.37207,-0.11886 h 0.0517 z"
         id="path30017" />
      <path
         d="m 125.29741,185.05369 q 0,0.79065 -0.65629,1.29708 -0.65112,0.50642 -1.78283,0.50642 -0.64079,0 -1.17822,-0.14986 -0.53226,-0.15503 -0.894,-0.33589 v -1.09037 h 0.0517 q 0.45992,0.34623 1.02319,0.55293 0.56327,0.20154 1.08003,0.20154 0.64079,0 1.00252,-0.20671 0.36174,-0.2067 0.36174,-0.65112 0,-0.34106 -0.19637,-0.51676 -0.19637,-0.1757 -0.75448,-0.29972 -0.2067,-0.0465 -0.5426,-0.10852 -0.33073,-0.062 -0.60461,-0.13436 -0.75964,-0.20154 -1.08004,-0.58911 -0.31522,-0.39274 -0.31522,-0.96118 0,-0.35656 0.14469,-0.67179 0.14986,-0.31522 0.44959,-0.56327 0.28938,-0.24288 0.7338,-0.3824 0.44958,-0.1447 1.00252,-0.1447 0.51676,0 1.04386,0.12919 0.53227,0.12403 0.88366,0.30489 v 1.0387 h -0.0517 q -0.37207,-0.27389 -0.90434,-0.45992 -0.53226,-0.19121 -1.04386,-0.19121 -0.53226,0 -0.89916,0.20671 -0.36691,0.20154 -0.36691,0.60461 0,0.35657 0.22221,0.53743 0.21704,0.18087 0.7028,0.29456 0.26872,0.062 0.59944,0.12402 0.3359,0.062 0.55811,0.11369 0.67696,0.15503 1.04386,0.53227 0.3669,0.3824 0.3669,1.01285 z"
         id="path30019" />
    </g>
    <g
       aria-label="Trees"
       id="text28319"
       style="font-size:10.5833px;line-height:1.25;stroke-width:0.264583">
      <path
         d="m 56.5163,163.42554 h -2.749178 v 6.78509 h -1.02319 v -6.78509 h -2.749177 v -0.9095 H 56.5163 Z"
         id="path29982" />
      <path
         d="m 60.040621,165.49776 h -0.05168 q -0.217041,-0.0517 -0.423746,-0.0724 -0.201537,-0.0258 -0.480589,-0.0258 -0.449583,0 -0.868161,0.20154 -0.418578,0.19637 -0.80615,0.51159 v 4.09793 h -0.971514 v -5.77224 h 0.971514 v 0.85266 q 0.578774,-0.46508 1.018023,-0.65629 0.444415,-0.19637 0.904334,-0.19637 0.253214,0 0.366902,0.0155 0.113687,0.0103 0.341063,0.0465 z"
         id="path29984" />
      <path
         d="m 65.787022,167.42528 h -4.252957 q 0,0.53227 0.160197,0.93017 0.160196,0.39274 0.439248,0.64596 0.268716,0.24804 0.635618,0.37207 0.372069,0.12402 0.816485,0.12402 0.589109,0 1.183386,-0.23254 0.599445,-0.23771 0.852659,-0.46509 h 0.05168 v 1.05936 q -0.490924,0.20671 -1.002519,0.34623 -0.511595,0.13953 -1.074867,0.13953 -1.4366,0 -2.24275,-0.77514 -0.80615,-0.78032 -0.80615,-2.21175 0,-1.41593 0.769977,-2.24792 0.775144,-0.83198 2.036045,-0.83198 1.167883,0 1.798334,0.68212 0.635618,0.68213 0.635618,1.93786 z m -0.945676,-0.74414 q -0.0052,-0.76481 -0.387572,-1.18338 -0.377236,-0.41858 -1.152381,-0.41858 -0.780311,0 -1.245398,0.45992 -0.459918,0.45992 -0.52193,1.14204 z"
         id="path29986" />
      <path
         d="M 72.091527,167.42528 H 67.83857 q 0,0.53227 0.160197,0.93017 0.160196,0.39274 0.439248,0.64596 0.268717,0.24804 0.635618,0.37207 0.372069,0.12402 0.816485,0.12402 0.58911,0 1.183387,-0.23254 0.599445,-0.23771 0.852658,-0.46509 h 0.05168 v 1.05936 q -0.490925,0.20671 -1.00252,0.34623 -0.511595,0.13953 -1.074866,0.13953 -1.436601,0 -2.24275,-0.77514 -0.80615,-0.78032 -0.80615,-2.21175 0,-1.41593 0.769976,-2.24792 0.775144,-0.83198 2.036045,-0.83198 1.167884,0 1.798334,0.68212 0.635618,0.68213 0.635618,1.93786 z m -0.945675,-0.74414 q -0.0052,-0.76481 -0.387572,-1.18338 -0.377237,-0.41858 -1.152381,-0.41858 -0.780312,0 -1.245398,0.45992 -0.459919,0.45992 -0.521931,1.14204 z"
         id="path29988" />
      <path
         d="m 77.688067,168.54666 q 0,0.79064 -0.656289,1.29707 -0.651121,0.50643 -1.782831,0.50643 -0.640786,0 -1.178219,-0.14986 -0.532265,-0.15503 -0.893999,-0.3359 v -1.09037 h 0.05168 q 0.459919,0.34623 1.02319,0.55294 0.563271,0.20154 1.080034,0.20154 0.640786,0 1.00252,-0.20671 0.361733,-0.2067 0.361733,-0.65112 0,-0.34106 -0.196369,-0.51676 -0.19637,-0.1757 -0.754474,-0.29973 -0.206705,-0.0465 -0.542601,-0.10852 -0.330728,-0.062 -0.604612,-0.13435 -0.759641,-0.20154 -1.080034,-0.58911 -0.315225,-0.39274 -0.315225,-0.96118 0,-0.35657 0.144693,-0.67179 0.149862,-0.31523 0.449584,-0.56327 0.289387,-0.24288 0.733803,-0.38241 0.449583,-0.14469 1.002519,-0.14469 0.516763,0 1.043861,0.12919 0.532266,0.12402 0.883664,0.30489 v 1.03869 h -0.05168 q -0.372069,-0.27388 -0.904335,-0.45992 -0.532265,-0.1912 -1.04386,-0.1912 -0.532266,0 -0.899167,0.20671 -0.366902,0.20153 -0.366902,0.60461 0,0.35656 0.222208,0.53743 0.21704,0.18087 0.702797,0.29456 0.268717,0.062 0.599445,0.12402 0.335896,0.062 0.558104,0.11369 0.676959,0.15502 1.04386,0.53226 0.366902,0.38241 0.366902,1.01286 z"
         id="path29990" />
    </g>
  </g>
</svg>
