<?xml version="1.0" encoding="UTF-8" standalone="no"?>
<!-- Created with Inkscape (http://www.inkscape.org/) -->

<svg
   width="417.8602mm"
   height="89.58165mm"
   viewBox="0 0 417.8602 89.58165"
   version="1.1"
   id="svg5"
   inkscape:version="1.1 (c68e22c387, 2021-05-23)"
   sodipodi:docname="tree-examples.svg"
   xmlns:inkscape="http://www.inkscape.org/namespaces/inkscape"
   xmlns:sodipodi="http://sodipodi.sourceforge.net/DTD/sodipodi-0.dtd"
   xmlns="http://www.w3.org/2000/svg"
   xmlns:svg="http://www.w3.org/2000/svg">
  <sodipodi:namedview
     id="namedview7"
     pagecolor="#ffffff"
     bordercolor="#666666"
     borderopacity="1.0"
     inkscape:pageshadow="2"
     inkscape:pageopacity="0.0"
     inkscape:pagecheckerboard="0"
     inkscape:document-units="mm"
     showgrid="false"
     inkscape:object-paths="true"
     inkscape:snap-intersection-paths="true"
     inkscape:snap-smooth-nodes="true"
     inkscape:zoom="0.5"
     inkscape:cx="779"
     inkscape:cy="284"
     inkscape:window-width="1806"
     inkscape:window-height="1172"
     inkscape:window-x="106"
     inkscape:window-y="-8"
     inkscape:window-maximized="1"
     inkscape:current-layer="layer1"
     fit-margin-top="5"
     fit-margin-left="5"
     fit-margin-right="5"
     fit-margin-bottom="5"
     inkscape:snap-bbox="true"
     inkscape:bbox-nodes="true"
     inkscape:snap-bbox-edge-midpoints="true"
     inkscape:snap-bbox-midpoints="true"
     inkscape:bbox-paths="true" />
  <defs
     id="defs2" />
  <g
     inkscape:label="Layer 1"
     inkscape:groupmode="layer"
     id="layer1"
     transform="translate(-90.678284,-73.240061)">
    <g
       id="g17327">
      <rect
         style="fill:#d9ebf2;fill-opacity:1;stroke:#000000;stroke-width:0.5;stroke-miterlimit:4;stroke-dasharray:none;stroke-opacity:1"
         id="rect846"
         width="18.143425"
         height="18.143425"
         x="95.928284"
         y="139.42828"
         rx="3.1553786"
         ry="3.1553786" />
      <g
         aria-label="a"
         id="text2439"
         style="font-size:14.1111px;line-height:1.25;-inkscape-font-specification:'sans-serif, Normal';stroke-width:0.264583">
        <path
           d="m 108.26939,152.92599 h -1.28847 v -0.81993 q -0.17225,0.11714 -0.46853,0.33073 -0.28939,0.20671 -0.56499,0.33073 -0.32384,0.15847 -0.74414,0.26183 -0.42031,0.11024 -0.9853,0.11024 -1.04042,0 -1.76389,-0.68902 -0.72347,-0.68902 -0.72347,-1.757 0,-0.87505 0.37207,-1.41248 0.37896,-0.54433 1.07487,-0.85439 0.7028,-0.31005 1.6881,-0.4203 0.98529,-0.11024 2.11528,-0.16536 v -0.19982 q 0,-0.44097 -0.15847,-0.73036 -0.15158,-0.28938 -0.44097,-0.45475 -0.27561,-0.15847 -0.66146,-0.2136 -0.38585,-0.0551 -0.80615,-0.0551 -0.50988,0 -1.13688,0.13781 -0.62701,0.13091 -1.29536,0.38585 h -0.0689 v -1.31603 q 0.37896,-0.10335 1.09554,-0.22737 0.71658,-0.12403 1.41249,-0.12403 0.81304,0 1.41249,0.13781 0.60633,0.13091 1.0473,0.45475 0.43409,0.31695 0.66146,0.81993 0.22738,0.50298 0.22738,1.24712 z m -1.28847,-1.8948 v -2.14284 q -0.59255,0.0344 -1.3987,0.10335 -0.79927,0.0689 -1.2678,0.19981 -0.5581,0.15848 -0.90261,0.4961 -0.34451,0.33073 -0.34451,0.91639 0,0.66146 0.39963,0.99908 0.39963,0.33073 1.21956,0.33073 0.68213,0 1.24713,-0.26183 0.56499,-0.26872 1.0473,-0.64079 z"
           id="path17081" />
      </g>
    </g>
    <g
       id="g17483">
      <rect
         style="fill:#d9ebf2;fill-opacity:1;stroke:#000000;stroke-width:0.5;stroke-miterlimit:4;stroke-dasharray:none;stroke-opacity:1"
         id="rect13164"
         width="18.143425"
         height="18.143425"
         x="215.03726"
         y="139.42828"
         rx="3.1553786"
         ry="3.1553786" />
      <g
         aria-label="b"
         id="text13168"
         style="font-size:14.1111px;line-height:1.25;-inkscape-font-specification:'sans-serif, Normal';stroke-width:0.264583"
         transform="translate(-4.7255252)">
        <path
           d="m 232.81264,149.01926 q 0,0.96463 -0.2756,1.73633 -0.26872,0.7717 -0.73036,1.29535 -0.48921,0.54433 -1.07487,0.81993 -0.58567,0.26872 -1.28847,0.26872 -0.65456,0 -1.14377,-0.15847 -0.4892,-0.15159 -0.96462,-0.41341 l -0.0827,0.35828 h -1.21267 v -10.72112 h 1.29536 v 3.83094 q 0.54432,-0.44786 1.15755,-0.73036 0.61322,-0.28939 1.37804,-0.28939 1.36425,0 2.14973,1.04731 0.79237,1.04731 0.79237,2.95589 z m -1.33669,0.0344 q 0,-1.37804 -0.45475,-2.08773 -0.45476,-0.71658 -1.46761,-0.71658 -0.565,0 -1.14377,0.24805 -0.57878,0.24116 -1.07487,0.62701 v 4.40972 q 0.55121,0.24804 0.94395,0.34451 0.39963,0.0965 0.90262,0.0965 1.07487,0 1.6812,-0.7028 0.61323,-0.70969 0.61323,-2.21864 z"
           id="path17087" />
      </g>
    </g>
    <path
       style="fill:none;stroke:#000000;stroke-width:0.5;stroke-linecap:butt;stroke-linejoin:miter;stroke-miterlimit:4;stroke-dasharray:none;stroke-opacity:1"
       d="m 199.96958,123.84901 -8.34014,16.37118"
       id="path13170"
       sodipodi:nodetypes="cc" />
    <path
       style="fill:none;stroke:#000000;stroke-width:0.5;stroke-linecap:butt;stroke-linejoin:miter;stroke-miterlimit:4;stroke-dasharray:none;stroke-opacity:1"
       d="m 207.75761,123.84901 8.34014,16.37118"
       id="path13172"
       sodipodi:nodetypes="cc" />
    <circle
       style="fill:#e3f2d9;fill-opacity:1;stroke:#000000;stroke-width:0.642774;stroke-miterlimit:4;stroke-dasharray:none;stroke-opacity:1"
       id="circle13174"
       cx="203.8636"
       cy="118.03088"
       r="9.0001135" />
    <g
       aria-label="0"
       id="text13178"
       style="font-size:14.1111px;line-height:1.25;-inkscape-font-specification:'sans-serif, Normal';stroke-width:0.264583"
       transform="translate(-4.7255252)">
      <path
         d="m 212.13759,118.02399 q 0,2.76297 -0.86817,4.05832 -0.86127,1.28847 -2.68028,1.28847 -1.84657,0 -2.70095,-1.30914 -0.84749,-1.30913 -0.84749,-4.02387 0,-2.7354 0.86127,-4.03765 0.86127,-1.30913 2.68717,-1.30913 1.84657,0 2.69406,1.3298 0.85439,1.32292 0.85439,4.0032 z m -1.81212,3.12815 q 0.24116,-0.55811 0.32384,-1.30914 0.0896,-0.75792 0.0896,-1.81901 0,-1.04731 -0.0896,-1.81901 -0.0827,-0.7717 -0.33073,-1.30913 -0.24116,-0.53055 -0.66146,-0.79926 -0.41341,-0.26872 -1.06798,-0.26872 -0.64768,0 -1.07487,0.26872 -0.4203,0.26871 -0.66835,0.81304 -0.23426,0.50987 -0.32383,1.3298 -0.0827,0.81994 -0.0827,1.79834 0,1.07487 0.0758,1.79834 0.0758,0.72347 0.32383,1.29536 0.22738,0.53743 0.64079,0.81993 0.4203,0.2825 1.10932,0.2825 0.64768,0 1.07487,-0.26872 0.42719,-0.26872 0.66146,-0.81304 z"
         id="path17090" />
    </g>
    <g
       id="g17301"
       transform="translate(18.339681)">
      <rect
         style="fill:#d9ebf2;fill-opacity:1;stroke:#000000;stroke-width:0.5;stroke-miterlimit:4;stroke-dasharray:none;stroke-opacity:1"
         id="rect13624"
         width="18.143425"
         height="18.143425"
         x="331.93472"
         y="108.95896"
         rx="3.1553786"
         ry="3.1553786" />
      <g
         aria-label="c"
         id="text13628"
         style="font-size:14.1111px;line-height:1.25;-inkscape-font-specification:'sans-serif, Normal';stroke-width:0.264583">
        <path
           d="m 344.12769,121.97437 q -0.64768,0.31006 -1.23334,0.48232 -0.57878,0.17225 -1.23335,0.17225 -0.83371,0 -1.52962,-0.24115 -0.69591,-0.24805 -1.192,-0.74414 -0.50298,-0.4961 -0.77859,-1.25402 -0.27561,-0.75792 -0.27561,-1.77078 0,-1.88791 1.03353,-2.96278 1.04042,-1.07486 2.74229,-1.07486 0.66146,0 1.29536,0.18603 0.64079,0.18604 1.17133,0.45475 v 1.44005 h -0.0689 q -0.59256,-0.46164 -1.22645,-0.70969 -0.62701,-0.24804 -1.22646,-0.24804 -1.10243,0 -1.74321,0.74414 -0.6339,0.73725 -0.6339,2.1704 0,1.39182 0.62012,2.14285 0.627,0.74414 1.75699,0.74414 0.39274,0 0.79926,-0.10335 0.40652,-0.10335 0.73036,-0.26872 0.2825,-0.14469 0.53055,-0.30317 0.24804,-0.16536 0.39274,-0.28249 h 0.0689 z"
           id="path17230" />
      </g>
      <path
         style="fill:none;stroke:#000000;stroke-width:0.5;stroke-linecap:butt;stroke-linejoin:miter;stroke-miterlimit:4;stroke-dasharray:none;stroke-opacity:1"
         d="m 316.86703,93.379698 -8.34014,16.371182"
         id="path13630"
         sodipodi:nodetypes="cc" />
      <path
         style="fill:none;stroke:#000000;stroke-width:0.5;stroke-linecap:butt;stroke-linejoin:miter;stroke-miterlimit:4;stroke-dasharray:none;stroke-opacity:1"
         d="m 324.65506,93.379698 8.34014,16.371182"
         id="path13632"
         sodipodi:nodetypes="cc" />
      <circle
         style="fill:#e3f2d9;fill-opacity:1;stroke:#000000;stroke-width:0.642774;stroke-miterlimit:4;stroke-dasharray:none;stroke-opacity:1"
         id="circle13634"
         cx="320.76105"
         cy="87.561569"
         r="9.0001135" />
      <g
         aria-label="0"
         id="text13638"
         style="font-size:14.1111px;line-height:1.25;-inkscape-font-specification:'sans-serif, Normal';stroke-width:0.264583">
        <path
           d="m 324.30952,87.554678 q 0,2.762964 -0.86816,4.058319 -0.86127,1.288465 -2.68028,1.288465 -1.84657,0 -2.70095,-1.309135 -0.8475,-1.309136 -0.8475,-4.023869 0,-2.735403 0.86128,-4.037649 0.86127,-1.309135 2.68717,-1.309135 1.84657,0 2.69406,1.329806 0.85438,1.322916 0.85438,4.003198 z m -1.81212,3.128144 q 0.24116,-0.558105 0.32384,-1.309135 0.0896,-0.757921 0.0896,-1.819009 0,-1.047308 -0.0896,-1.819009 -0.0827,-0.771701 -0.33073,-1.309135 -0.24115,-0.530545 -0.66145,-0.799262 -0.41341,-0.268717 -1.06798,-0.268717 -0.64768,0 -1.07487,0.268717 -0.4203,0.268717 -0.66835,0.813042 -0.23427,0.509874 -0.32384,1.329806 -0.0827,0.819932 -0.0827,1.798338 0,1.074869 0.0758,1.798339 0.0758,0.723469 0.32384,1.295355 0.22738,0.537434 0.64079,0.819932 0.4203,0.282497 1.10932,0.282497 0.64768,0 1.07487,-0.268717 0.42719,-0.268717 0.66145,-0.813042 z"
           id="path17227" />
      </g>
      <rect
         style="fill:#d9ebf2;fill-opacity:1;stroke:#000000;stroke-width:0.5;stroke-miterlimit:4;stroke-dasharray:none;stroke-opacity:1"
         id="rect13580"
         width="18.143425"
         height="18.143425"
         x="275.3158"
         y="139.42828"
         rx="3.1553786"
         ry="3.1553786" />
      <g
         aria-label="a"
         id="text13584"
         style="font-size:14.1111px;line-height:1.25;-inkscape-font-specification:'sans-serif, Normal';stroke-width:0.264583">
        <path
           d="m 287.65689,152.92599 h -1.28847 v -0.81993 q -0.17225,0.11714 -0.46853,0.33073 -0.28939,0.20671 -0.565,0.33073 -0.32384,0.15847 -0.74414,0.26183 -0.4203,0.11024 -0.98529,0.11024 -1.04042,0 -1.76389,-0.68902 -0.72347,-0.68902 -0.72347,-1.757 0,-0.87505 0.37207,-1.41248 0.37896,-0.54433 1.07487,-0.85439 0.7028,-0.31005 1.68809,-0.4203 0.9853,-0.11024 2.11529,-0.16536 v -0.19982 q 0,-0.44097 -0.15847,-0.73036 -0.15159,-0.28938 -0.44098,-0.45475 -0.2756,-0.15847 -0.66145,-0.2136 -0.38585,-0.0551 -0.80616,-0.0551 -0.50987,0 -1.13688,0.13781 -0.627,0.13091 -1.29535,0.38585 h -0.0689 v -1.31603 q 0.37896,-0.10335 1.09554,-0.22737 0.71658,-0.12403 1.41249,-0.12403 0.81304,0 1.41248,0.13781 0.60634,0.13091 1.04731,0.45475 0.43408,0.31695 0.66146,0.81993 0.22738,0.50298 0.22738,1.24712 z m -1.28847,-1.8948 v -2.14284 q -0.59256,0.0344 -1.39871,0.10335 -0.79926,0.0689 -1.26779,0.19981 -0.55811,0.15848 -0.90262,0.4961 -0.3445,0.33073 -0.3445,0.91639 0,0.66146 0.39963,0.99908 0.39963,0.33073 1.21956,0.33073 0.68213,0 1.24712,-0.26183 0.565,-0.26872 1.04731,-0.64079 z"
           id="path17221" />
      </g>
      <rect
         style="fill:#d9ebf2;fill-opacity:1;stroke:#000000;stroke-width:0.5;stroke-miterlimit:4;stroke-dasharray:none;stroke-opacity:1"
         id="rect13586"
         width="18.143425"
         height="18.143425"
         x="315.80655"
         y="139.42828"
         rx="3.1553786"
         ry="3.1553786" />
      <g
         aria-label="b"
         id="text13590"
         style="font-size:14.1111px;line-height:1.25;-inkscape-font-specification:'sans-serif, Normal';stroke-width:0.264583">
        <path
           d="m 328.85639,149.01926 q 0,0.96463 -0.27561,1.73633 -0.26871,0.7717 -0.73036,1.29535 -0.4892,0.54433 -1.07486,0.81993 -0.58567,0.26872 -1.28847,0.26872 -0.65457,0 -1.14377,-0.15847 -0.4892,-0.15159 -0.96463,-0.41341 l -0.0827,0.35828 h -1.21267 v -10.72112 h 1.29535 v 3.83094 q 0.54433,-0.44786 1.15756,-0.73036 0.61322,-0.28939 1.37803,-0.28939 1.36426,0 2.14974,1.04731 0.79237,1.04731 0.79237,2.95589 z m -1.33669,0.0344 q 0,-1.37804 -0.45476,-2.08773 -0.45475,-0.71658 -1.46761,-0.71658 -0.56499,0 -1.14377,0.24805 -0.57877,0.24116 -1.07487,0.62701 v 4.40972 q 0.55122,0.24804 0.94396,0.34451 0.39963,0.0965 0.90261,0.0965 1.07487,0 1.68121,-0.7028 0.61323,-0.70969 0.61323,-2.21864 z"
           id="path17233" />
      </g>
      <path
         style="fill:none;stroke:#000000;stroke-width:0.5;stroke-linecap:butt;stroke-linejoin:miter;stroke-miterlimit:4;stroke-dasharray:none;stroke-opacity:1"
         d="m 300.73886,123.84901 -8.34014,16.37118"
         id="path13592"
         sodipodi:nodetypes="cc" />
      <path
         style="fill:none;stroke:#000000;stroke-width:0.5;stroke-linecap:butt;stroke-linejoin:miter;stroke-miterlimit:4;stroke-dasharray:none;stroke-opacity:1"
         d="m 308.52689,123.84901 8.34014,16.37118"
         id="path13594"
         sodipodi:nodetypes="cc" />
      <circle
         style="fill:#e3f2d9;fill-opacity:1;stroke:#000000;stroke-width:0.642774;stroke-miterlimit:4;stroke-dasharray:none;stroke-opacity:1"
         id="circle13596"
         cx="304.63287"
         cy="118.03088"
         r="9.0001135" />
      <g
         aria-label="0"
         id="text13600"
         style="font-size:14.1111px;line-height:1.25;-inkscape-font-specification:'sans-serif, Normal';stroke-width:0.264583">
        <path
           d="m 308.18135,118.02399 q 0,2.76297 -0.86816,4.05832 -0.86128,1.28847 -2.68029,1.28847 -1.84657,0 -2.70095,-1.30914 -0.84749,-1.30913 -0.84749,-4.02387 0,-2.7354 0.86127,-4.03765 0.86127,-1.30913 2.68717,-1.30913 1.84657,0 2.69407,1.3298 0.85438,1.32292 0.85438,4.0032 z m -1.81212,3.12815 q 0.24116,-0.55811 0.32384,-1.30914 0.0896,-0.75792 0.0896,-1.81901 0,-1.04731 -0.0896,-1.81901 -0.0827,-0.7717 -0.33073,-1.30913 -0.24116,-0.53055 -0.66146,-0.79926 -0.41341,-0.26872 -1.06798,-0.26872 -0.64767,0 -1.07486,0.26872 -0.42031,0.26871 -0.66835,0.81304 -0.23427,0.50987 -0.32384,1.3298 -0.0827,0.81994 -0.0827,1.79834 0,1.07487 0.0758,1.79834 0.0758,0.72347 0.32384,1.29536 0.22737,0.53743 0.64078,0.81993 0.42031,0.2825 1.10932,0.2825 0.64768,0 1.07487,-0.26872 0.42719,-0.26872 0.66146,-0.81304 z"
           id="path17224" />
      </g>
    </g>
    <g
       id="g17322"
       transform="translate(2.7011475e-5)">
      <rect
         style="fill:#d9ebf2;fill-opacity:1;stroke:#000000;stroke-width:0.5;stroke-miterlimit:4;stroke-dasharray:none;stroke-opacity:1"
         id="rect13602"
         width="18.143425"
         height="18.143425"
         x="485.14502"
         y="139.42828"
         rx="3.1553786"
         ry="3.1553786" />
      <g
         aria-label="c"
         id="text13606"
         style="font-size:14.1111px;line-height:1.25;-inkscape-font-specification:'sans-serif, Normal';stroke-width:0.264583">
        <path
           d="m 497.33799,152.44368 q -0.64768,0.31006 -1.23335,0.48231 -0.57877,0.17226 -1.23334,0.17226 -0.83371,0 -1.52962,-0.24116 -0.69591,-0.24804 -1.192,-0.74414 -0.50299,-0.49609 -0.77859,-1.25401 -0.27561,-0.75792 -0.27561,-1.77078 0,-1.88791 1.03353,-2.96278 1.04041,-1.07487 2.74229,-1.07487 0.66146,0 1.29536,0.18604 0.64078,0.18603 1.17133,0.45475 v 1.44005 h -0.0689 q -0.59256,-0.46164 -1.22646,-0.70969 -0.627,-0.24805 -1.22645,-0.24805 -1.10243,0 -1.74322,0.74414 -0.6339,0.73725 -0.6339,2.17041 0,1.39182 0.62012,2.14285 0.62701,0.74414 1.757,0.74414 0.39274,0 0.79926,-0.10335 0.40652,-0.10336 0.73036,-0.26872 0.2825,-0.14469 0.53054,-0.30317 0.24805,-0.16536 0.39275,-0.2825 h 0.0689 z"
           id="path17248" />
      </g>
      <path
         style="fill:none;stroke:#000000;stroke-width:0.5;stroke-linecap:butt;stroke-linejoin:miter;stroke-miterlimit:4;stroke-dasharray:none;stroke-opacity:1"
         d="m 470.07731,123.84901 -8.34014,16.37118"
         id="path13614"
         sodipodi:nodetypes="cc" />
      <path
         style="fill:none;stroke:#000000;stroke-width:0.5;stroke-linecap:butt;stroke-linejoin:miter;stroke-miterlimit:4;stroke-dasharray:none;stroke-opacity:1"
         d="m 477.86534,123.84901 8.34014,16.37118"
         id="path13616"
         sodipodi:nodetypes="cc" />
      <circle
         style="fill:#e3f2d9;fill-opacity:1;stroke:#000000;stroke-width:0.642774;stroke-miterlimit:4;stroke-dasharray:none;stroke-opacity:1"
         id="circle13618"
         cx="473.97134"
         cy="118.03088"
         r="9.0001135" />
      <g
         aria-label="0"
         id="text13622"
         style="font-size:14.1111px;line-height:1.25;-inkscape-font-specification:'sans-serif, Normal';stroke-width:0.264583">
        <path
           d="m 477.51982,118.02399 q 0,2.76297 -0.86816,4.05832 -0.86128,1.28847 -2.68029,1.28847 -1.84657,0 -2.70095,-1.30914 -0.84749,-1.30913 -0.84749,-4.02387 0,-2.7354 0.86127,-4.03765 0.86128,-1.30913 2.68717,-1.30913 1.84657,0 2.69407,1.3298 0.85438,1.32292 0.85438,4.0032 z m -1.81212,3.12815 q 0.24116,-0.55811 0.32384,-1.30914 0.0896,-0.75792 0.0896,-1.81901 0,-1.04731 -0.0896,-1.81901 -0.0827,-0.7717 -0.33073,-1.30913 -0.24116,-0.53055 -0.66146,-0.79926 -0.41341,-0.26872 -1.06798,-0.26872 -0.64767,0 -1.07486,0.26872 -0.42031,0.26871 -0.66835,0.81304 -0.23427,0.50987 -0.32384,1.3298 -0.0827,0.81994 -0.0827,1.79834 0,1.07487 0.0758,1.79834 0.0758,0.72347 0.32384,1.29536 0.22737,0.53743 0.64078,0.81993 0.42031,0.2825 1.10932,0.2825 0.64768,0 1.07487,-0.26872 0.42719,-0.26872 0.66146,-0.81304 z"
           id="path17242" />
      </g>
      <rect
         style="fill:#d9ebf2;fill-opacity:1;stroke:#000000;stroke-width:0.5;stroke-miterlimit:4;stroke-dasharray:none;stroke-opacity:1"
         id="rect15518"
         width="18.143425"
         height="18.143425"
         x="428.89261"
         y="108.95896"
         rx="3.1553786"
         ry="3.1553786" />
      <g
         aria-label="a"
         id="text15522"
         style="font-size:14.1111px;line-height:1.25;-inkscape-font-specification:'sans-serif, Normal';stroke-width:0.264583">
        <path
           d="m 441.2337,122.45667 h -1.28847 v -0.81993 q -0.17225,0.11713 -0.46853,0.33073 -0.28939,0.20671 -0.56499,0.33073 -0.32384,0.15847 -0.74414,0.26183 -0.42031,0.11024 -0.9853,0.11024 -1.04042,0 -1.76389,-0.68902 -0.72347,-0.68902 -0.72347,-1.757 0,-0.87505 0.37207,-1.41249 0.37896,-0.54432 1.07487,-0.85438 0.7028,-0.31006 1.6881,-0.4203 0.98529,-0.11024 2.11528,-0.16536 v -0.19982 q 0,-0.44097 -0.15847,-0.73036 -0.15159,-0.28939 -0.44097,-0.45475 -0.27561,-0.15848 -0.66146,-0.2136 -0.38585,-0.0551 -0.80615,-0.0551 -0.50988,0 -1.13688,0.1378 -0.62701,0.13092 -1.29536,0.38586 h -0.0689 v -1.31603 q 0.37896,-0.10335 1.09554,-0.22738 0.71658,-0.12402 1.41249,-0.12402 0.81304,0 1.41249,0.1378 0.60633,0.13092 1.0473,0.45476 0.43409,0.31694 0.66146,0.81993 0.22738,0.50298 0.22738,1.24712 z m -1.28847,-1.8948 v -2.14285 q -0.59255,0.0344 -1.3987,0.10336 -0.79927,0.0689 -1.2678,0.19981 -0.5581,0.15848 -0.90261,0.4961 -0.34451,0.33072 -0.34451,0.91639 0,0.66146 0.39963,0.99908 0.39963,0.33073 1.21956,0.33073 0.68213,0 1.24713,-0.26183 0.56499,-0.26872 1.0473,-0.64079 z"
           id="path17236" />
      </g>
      <path
         style="fill:none;stroke:#000000;stroke-width:0.5;stroke-linecap:butt;stroke-linejoin:miter;stroke-miterlimit:4;stroke-dasharray:none;stroke-opacity:1"
         d="m 454.31565,93.379688 -8.34014,16.371182"
         id="path15524"
         sodipodi:nodetypes="cc" />
      <path
         style="fill:none;stroke:#000000;stroke-width:0.5;stroke-linecap:butt;stroke-linejoin:miter;stroke-miterlimit:4;stroke-dasharray:none;stroke-opacity:1"
         d="m 462.10368,93.379688 8.34014,16.371182"
         id="path15526"
         sodipodi:nodetypes="cc" />
      <circle
         style="fill:#e3f2d9;fill-opacity:1;stroke:#000000;stroke-width:0.642774;stroke-miterlimit:4;stroke-dasharray:none;stroke-opacity:1"
         id="circle15528"
         cx="458.20969"
         cy="87.561562"
         r="9.0001135" />
      <g
         aria-label="0"
         id="text15532"
         style="font-size:14.1111px;line-height:1.25;-inkscape-font-specification:'sans-serif, Normal';stroke-width:0.264583">
        <path
           d="m 461.75816,87.55467 q 0,2.762965 -0.86816,4.05832 -0.86127,1.288464 -2.68028,1.288464 -1.84657,0 -2.70096,-1.309135 -0.84749,-1.309135 -0.84749,-4.023868 0,-2.735404 0.86127,-4.037649 0.86128,-1.309135 2.68718,-1.309135 1.84657,0 2.69406,1.329805 0.85438,1.322916 0.85438,4.003198 z m -1.81212,3.128145 q 0.24116,-0.558105 0.32384,-1.309136 0.0896,-0.75792 0.0896,-1.819009 0,-1.047308 -0.0896,-1.819009 -0.0827,-0.771701 -0.33073,-1.309135 -0.24115,-0.530544 -0.66145,-0.799262 -0.41342,-0.268717 -1.06798,-0.268717 -0.64768,0 -1.07487,0.268717 -0.4203,0.268718 -0.66835,0.813042 -0.23427,0.509874 -0.32384,1.329806 -0.0827,0.819932 -0.0827,1.798339 0,1.074869 0.0758,1.798338 0.0758,0.72347 0.32384,1.295355 0.22738,0.537434 0.64079,0.819932 0.4203,0.282498 1.10932,0.282498 0.64767,0 1.07487,-0.268718 0.42719,-0.268717 0.66145,-0.813041 z"
           id="path17239" />
      </g>
      <rect
         style="fill:#d9ebf2;fill-opacity:1;stroke:#000000;stroke-width:0.5;stroke-miterlimit:4;stroke-dasharray:none;stroke-opacity:1"
         id="rect15704"
         width="18.143425"
         height="18.143425"
         x="444.65427"
         y="139.42828"
         rx="3.1553786"
         ry="3.1553786" />
      <g
         aria-label="b"
         id="text15708"
         style="font-size:14.1111px;line-height:1.25;-inkscape-font-specification:'sans-serif, Normal';stroke-width:0.264583">
        <path
           d="m 457.70414,149.01926 q 0,0.96463 -0.27561,1.73633 -0.26872,0.7717 -0.73036,1.29535 -0.4892,0.54433 -1.07487,0.81993 -0.58566,0.26872 -1.28846,0.26872 -0.65457,0 -1.14377,-0.15847 -0.48921,-0.15159 -0.96463,-0.41341 l -0.0827,0.35828 h -1.21267 v -10.72112 h 1.29535 v 3.83094 q 0.54433,-0.44786 1.15755,-0.73036 0.61323,-0.28939 1.37804,-0.28939 1.36426,0 2.14974,1.04731 0.79237,1.04731 0.79237,2.95589 z m -1.3367,0.0344 q 0,-1.37804 -0.45475,-2.08773 -0.45475,-0.71658 -1.46761,-0.71658 -0.56499,0 -1.14377,0.24805 -0.57877,0.24116 -1.07487,0.62701 v 4.40972 q 0.55122,0.24804 0.94396,0.34451 0.39963,0.0965 0.90261,0.0965 1.07487,0 1.68121,-0.7028 0.61322,-0.70969 0.61322,-2.21864 z"
           id="path17245" />
      </g>
    </g>
    <g
       id="g17491"
       transform="translate(-40.490753)">
      <rect
         style="fill:#d9ebf2;fill-opacity:1;stroke:#000000;stroke-width:0.5;stroke-miterlimit:4;stroke-dasharray:none;stroke-opacity:1"
         id="rect17485"
         width="18.143425"
         height="18.143425"
         x="215.03726"
         y="139.42828"
         rx="3.1553786"
         ry="3.1553786" />
      <g
         aria-label="b"
         id="g17489"
         style="font-size:14.1111px;line-height:1.25;-inkscape-font-specification:'sans-serif, Normal';stroke-width:0.264583"
         transform="translate(-4.7255252)">
        <path
           d="m 232.81264,149.01926 q 0,0.96463 -0.2756,1.73633 -0.26872,0.7717 -0.73036,1.29535 -0.48921,0.54433 -1.07487,0.81993 -0.58567,0.26872 -1.28847,0.26872 -0.65456,0 -1.14377,-0.15847 -0.4892,-0.15159 -0.96462,-0.41341 l -0.0827,0.35828 h -1.21267 v -10.72112 h 1.29536 v 3.83094 q 0.54432,-0.44786 1.15755,-0.73036 0.61322,-0.28939 1.37804,-0.28939 1.36425,0 2.14973,1.04731 0.79237,1.04731 0.79237,2.95589 z m -1.33669,0.0344 q 0,-1.37804 -0.45475,-2.08773 -0.45476,-0.71658 -1.46761,-0.71658 -0.565,0 -1.14377,0.24805 -0.57878,0.24116 -1.07487,0.62701 v 4.40972 q 0.55121,0.24804 0.94395,0.34451 0.39963,0.0965 0.90262,0.0965 1.07487,0 1.6812,-0.7028 0.61323,-0.70969 0.61323,-2.21864 z"
           id="path17487" />
      </g>
    </g>
  </g>
</svg>
