<?xml version="1.0" encoding="UTF-8" standalone="no"?>
<!-- Created with Inkscape (http://www.inkscape.org/) -->

<svg
   width="69.134178mm"
   height="59.112324mm"
   viewBox="0 0 69.134178 59.112324"
   version="1.1"
   id="svg5"
   inkscape:version="1.1 (c68e22c387, 2021-05-23)"
   sodipodi:docname="tree-ab.svg"
   xmlns:inkscape="http://www.inkscape.org/namespaces/inkscape"
   xmlns:sodipodi="http://sodipodi.sourceforge.net/DTD/sodipodi-0.dtd"
   xmlns="http://www.w3.org/2000/svg"
   xmlns:svg="http://www.w3.org/2000/svg">
  <sodipodi:namedview
     id="namedview7"
     pagecolor="#ffffff"
     bordercolor="#666666"
     borderopacity="1.0"
     inkscape:pageshadow="2"
     inkscape:pageopacity="0.0"
     inkscape:pagecheckerboard="0"
     inkscape:document-units="mm"
     showgrid="false"
     inkscape:object-paths="true"
     inkscape:snap-intersection-paths="true"
     inkscape:snap-smooth-nodes="true"
     inkscape:zoom="1.6427329"
     inkscape:cx="190.84052"
     inkscape:cy="113.22596"
     inkscape:window-width="1806"
     inkscape:window-height="1172"
     inkscape:window-x="106"
     inkscape:window-y="-8"
     inkscape:window-maximized="1"
     inkscape:current-layer="layer1"
     fit-margin-top="5"
     fit-margin-left="5"
     fit-margin-right="5"
     fit-margin-bottom="5" />
  <defs
     id="defs2" />
  <g
     inkscape:label="Layer 1"
     inkscape:groupmode="layer"
     id="layer1"
     transform="translate(-90.678284,-103.70938)">
    <rect
       style="fill:#d9ebf2;fill-opacity:1;stroke:#000000;stroke-width:0.5;stroke-miterlimit:4;stroke-dasharray:none;stroke-opacity:1"
       id="rect846"
       width="18.143425"
       height="18.143425"
       x="95.928284"
       y="139.42828"
       rx="3.1553786"
       ry="3.1553786" />
    <g
       aria-label="a"
       id="text2439"
       style="font-size:14.1111px;line-height:1.25;-inkscape-font-specification:'sans-serif, Normal';stroke-width:0.264583">
      <path
         d="m 108.26939,152.92599 h -1.28847 v -0.81993 q -0.17225,0.11714 -0.46853,0.33073 -0.28939,0.20671 -0.56499,0.33073 -0.32384,0.15847 -0.74414,0.26183 -0.42031,0.11024 -0.9853,0.11024 -1.04042,0 -1.76389,-0.68902 -0.72347,-0.68902 -0.72347,-1.757 0,-0.87505 0.37207,-1.41248 0.37896,-0.54433 1.07487,-0.85439 0.7028,-0.31005 1.6881,-0.4203 0.98529,-0.11024 2.11528,-0.16536 v -0.19982 q 0,-0.44097 -0.15847,-0.73036 -0.15158,-0.28938 -0.44097,-0.45475 -0.27561,-0.15847 -0.66146,-0.2136 -0.38585,-0.0551 -0.80615,-0.0551 -0.50988,0 -1.13688,0.13781 -0.62701,0.13091 -1.29536,0.38585 h -0.0689 v -1.31603 q 0.37896,-0.10335 1.09554,-0.22737 0.71658,-0.12403 1.41249,-0.12403 0.81304,0 1.41249,0.13781 0.60633,0.13091 1.0473,0.45475 0.43409,0.31695 0.66146,0.81993 0.22738,0.50298 0.22738,1.24712 z m -1.28847,-1.8948 v -2.14284 q -0.59255,0.0344 -1.3987,0.10335 -0.79927,0.0689 -1.2678,0.19981 -0.5581,0.15848 -0.90261,0.4961 -0.34451,0.33073 -0.34451,0.91639 0,0.66146 0.39963,0.99908 0.39963,0.33073 1.21956,0.33073 0.68213,0 1.24713,-0.26183 0.56499,-0.26872 1.0473,-0.64079 z"
         id="path12289" />
    </g>
    <rect
       style="fill:#d9ebf2;fill-opacity:1;stroke:#000000;stroke-width:0.5;stroke-miterlimit:4;stroke-dasharray:none;stroke-opacity:1"
       id="rect2619"
       width="18.143425"
       height="18.143425"
       x="136.41904"
       y="139.42828"
       rx="3.1553786"
       ry="3.1553786" />
    <g
       aria-label="b"
       id="text2623"
       style="font-size:14.1111px;line-height:1.25;-inkscape-font-specification:'sans-serif, Normal';stroke-width:0.264583">
      <path
         d="m 149.46889,149.01926 q 0,0.96463 -0.2756,1.73633 -0.26872,0.7717 -0.73036,1.29535 -0.48921,0.54433 -1.07487,0.81993 -0.58567,0.26872 -1.28847,0.26872 -0.65456,0 -1.14377,-0.15847 -0.4892,-0.15159 -0.96462,-0.41341 l -0.0827,0.35828 h -1.21267 v -10.72112 h 1.29536 v 3.83094 q 0.54432,-0.44786 1.15755,-0.73036 0.61322,-0.28939 1.37804,-0.28939 1.36425,0 2.14973,1.04731 0.79237,1.04731 0.79237,2.95589 z m -1.33669,0.0344 q 0,-1.37804 -0.45475,-2.08773 -0.45476,-0.71658 -1.46761,-0.71658 -0.565,0 -1.14377,0.24805 -0.57878,0.24116 -1.07487,0.62701 v 4.40972 q 0.55121,0.24804 0.94395,0.34451 0.39963,0.0965 0.90262,0.0965 1.07487,0 1.6812,-0.7028 0.61323,-0.70969 0.61323,-2.21864 z"
         id="path12292" />
    </g>
    <path
       style="fill:none;stroke:#000000;stroke-width:0.5;stroke-linecap:butt;stroke-linejoin:miter;stroke-miterlimit:4;stroke-dasharray:none;stroke-opacity:1"
       d="m 121.35136,123.84901 -8.34014,16.37118"
       id="path5715"
       sodipodi:nodetypes="cc" />
    <path
       style="fill:none;stroke:#000000;stroke-width:0.5;stroke-linecap:butt;stroke-linejoin:miter;stroke-miterlimit:4;stroke-dasharray:none;stroke-opacity:1"
       d="m 129.13939,123.84901 8.34014,16.37118"
       id="path6128"
       sodipodi:nodetypes="cc" />
    <circle
       style="fill:#e3f2d9;fill-opacity:1;stroke:#000000;stroke-width:0.642774;stroke-miterlimit:4;stroke-dasharray:none;stroke-opacity:1"
       id="circle6305"
       cx="125.24538"
       cy="118.03088"
       r="9.0001135" />
    <g
       aria-label="0"
       id="text2439-6"
       style="font-size:14.1111px;line-height:1.25;-inkscape-font-specification:'sans-serif, Normal';stroke-width:0.264583">
      <path
         d="m 128.79383,118.02399 q 0,2.76297 -0.86816,4.05832 -0.86128,1.28847 -2.68029,1.28847 -1.84657,0 -2.70095,-1.30914 -0.84749,-1.30913 -0.84749,-4.02387 0,-2.7354 0.86127,-4.03765 0.86127,-1.30913 2.68717,-1.30913 1.84657,0 2.69407,1.3298 0.85438,1.32292 0.85438,4.0032 z m -1.81212,3.12815 q 0.24116,-0.55811 0.32384,-1.30914 0.0896,-0.75792 0.0896,-1.81901 0,-1.04731 -0.0896,-1.81901 -0.0827,-0.7717 -0.33073,-1.30913 -0.24116,-0.53055 -0.66146,-0.79926 -0.41341,-0.26872 -1.06798,-0.26872 -0.64767,0 -1.07486,0.26872 -0.42031,0.26871 -0.66835,0.81304 -0.23427,0.50987 -0.32384,1.3298 -0.0827,0.81994 -0.0827,1.79834 0,1.07487 0.0758,1.79834 0.0758,0.72347 0.32384,1.29536 0.22737,0.53743 0.64078,0.81993 0.42031,0.2825 1.10932,0.2825 0.64768,0 1.07487,-0.26872 0.42719,-0.26872 0.66146,-0.81304 z"
         id="path12286" />
    </g>
  </g>
</svg>
